<svg width="548" height="390" viewBox="0 0 548 390" fill="none" xmlns="http://www.w3.org/2000/svg">
<path opacity="0.6" d="M318.251 69.2114C283.183 68.0102 249.758 56.8518 217.888 44.6461C186.019 32.4404 154.431 18.9144 120.185 12.4467C98.1664 8.28216 72.9852 7.69644 55.2475 19.3313C38.1746 30.5244 32.6599 49.8481 29.6935 67.7769C27.4625 81.2682 26.1682 95.4643 32.2671 108.097C36.5126 116.863 44.0469 124.234 49.2594 132.632C67.3899 161.854 54.5726 197.89 34.9212 226.446C25.7048 239.848 15.0129 252.6 7.90167 266.85C0.790478 281.101 -2.50323 297.427 3.72158 311.96C9.89099 326.355 24.5868 337.186 40.5114 344.795C72.8542 360.237 110.964 364.655 148.126 367.186C230.388 372.731 313.094 370.328 395.572 367.926C426.097 367.033 456.758 366.134 486.784 361.473C503.459 358.887 520.678 354.787 532.785 344.89C548.151 332.321 551.963 311.047 541.664 295.287C524.39 268.861 476.631 262.294 464.554 233.931C457.911 218.32 464.735 200.928 474.395 186.449C495.109 155.391 529.839 128.14 531.667 92.635C532.926 68.2484 516.231 43.8321 490.415 32.2915C463.36 20.1851 425.84 21.7139 405.882 41.7225C385.329 62.3367 349.209 70.2687 318.251 69.2114Z" fill="#587EEC"/>
<path d="M122.436 360.585C122.436 360.585 94.7368 339.946 89.5042 313.693C87.3822 302.667 81.6903 292.616 73.2824 285.047C69.2602 281.487 64.9159 278.297 60.304 275.517" stroke="#9AB1F3" stroke-width="2" stroke-miterlimit="10"/>
<path d="M56.9146 258.978C59.342 262.214 60.4399 275.929 60.4399 275.929C60.4399 275.929 47.4615 270.891 45.029 267.66C43.8609 266.106 43.3668 264.159 43.6554 262.247C43.9439 260.334 44.9915 258.613 46.5676 257.462C48.1437 256.311 50.1193 255.824 52.0597 256.108C54.0002 256.392 55.7465 257.425 56.9146 258.978Z" fill="#587EEC"/>
<path d="M80.1922 269.739C80.4441 273.755 73.8113 285.856 73.8113 285.856C73.8113 285.856 65.6878 274.668 65.431 270.653C65.3333 268.738 66.0049 266.863 67.3003 265.433C68.5957 264.004 70.4105 263.134 72.3515 263.014C74.2925 262.894 76.2034 263.533 77.6701 264.791C79.1368 266.05 80.0411 267.828 80.1872 269.739H80.1922Z" fill="#587EEC"/>
<path d="M102.755 300.673C100.921 304.267 88.9905 311.415 88.9905 311.415C88.9905 311.415 87.7163 297.715 89.5495 294.121C90.4519 292.431 91.9914 291.158 93.8368 290.575C95.6821 289.993 97.6857 290.147 99.4164 291.006C101.147 291.865 102.467 293.359 103.091 295.167C103.715 296.975 103.594 298.952 102.755 300.673Z" fill="#587EEC"/>
<path d="M114.484 327.854C113.29 331.701 102.759 340.73 102.759 340.73C102.759 340.73 99.1484 327.442 100.342 323.59C100.916 321.742 102.211 320.194 103.943 319.287C105.674 318.38 107.701 318.188 109.576 318.753C111.451 319.319 113.022 320.595 113.942 322.302C114.863 324.009 115.058 326.006 114.484 327.854Z" fill="#587EEC"/>
<path d="M61.8047 295.585C65.8337 296.121 78.5704 290.453 78.5704 290.453C78.5704 290.453 67.8231 281.677 63.7739 281.141C61.8305 280.884 59.8629 281.398 58.304 282.57C56.7452 283.743 55.7227 285.477 55.4616 287.393C55.2004 289.308 55.722 291.247 56.9116 292.784C58.1012 294.32 59.8613 295.328 61.8047 295.585Z" fill="#587EEC"/>
<path d="M75.9314 327.209C79.9604 326.529 90.3703 317.371 90.3703 317.371C90.3703 317.371 77.4473 312.169 73.4233 312.849C72.4599 313.005 71.5373 313.347 70.7088 313.856C69.8802 314.365 69.1622 315.03 68.5961 315.814C68.0299 316.598 67.6269 317.485 67.4103 318.423C67.1937 319.361 67.1678 320.333 67.3341 321.281C67.5003 322.229 67.8555 323.135 68.379 323.947C68.9026 324.759 69.5842 325.461 70.3844 326.013C71.1847 326.564 72.0877 326.953 73.0415 327.159C73.9953 327.364 74.9809 327.381 75.9415 327.209H75.9314Z" fill="#587EEC"/>
<path d="M93.936 356.093C98.0204 356.093 109.856 348.801 109.856 348.801C109.856 348.801 98.0153 341.519 93.9309 341.519C91.9701 341.519 90.0896 342.287 88.7031 343.653C87.3166 345.02 86.5377 346.873 86.5377 348.806C86.5377 350.738 87.3166 352.592 88.7031 353.958C90.0896 355.325 91.9701 356.093 93.9309 356.093H93.936Z" fill="#587EEC"/>
<path d="M391.523 182.076C391.523 182.076 408.596 152.269 434.331 143.682C445.138 140.145 454.489 133.249 460.983 124.03C464.029 119.623 466.657 114.949 468.835 110.068" stroke="#9AB1F3" stroke-width="2" stroke-miterlimit="10"/>
<path d="M484.991 104.607C482.06 107.407 468.417 110.306 468.417 110.306C468.417 110.306 471.766 96.9534 474.697 94.149C476.112 92.8434 477.99 92.1377 479.928 92.1836C481.865 92.2295 483.707 93.0235 485.056 94.3945C486.406 95.7655 487.155 97.604 487.143 99.5142C487.131 101.424 486.358 103.253 484.991 104.607Z" fill="#587EEC"/>
<path d="M477.275 128.746C473.246 129.53 460.218 124.656 460.218 124.656C460.218 124.656 470.391 115.225 474.395 114.455C475.356 114.245 476.35 114.226 477.319 114.4C478.288 114.574 479.212 114.936 480.037 115.467C480.861 115.997 481.57 116.684 482.122 117.488C482.673 118.293 483.056 119.197 483.248 120.149C483.44 121.101 483.437 122.081 483.239 123.032C483.041 123.983 482.653 124.885 482.097 125.686C481.54 126.487 480.827 127.17 479.999 127.695C479.171 128.221 478.245 128.578 477.275 128.746Z" fill="#587EEC"/>
<path d="M449.193 154.895C445.336 153.579 436.567 142.878 436.567 142.878C436.567 142.878 450.165 139.81 454.033 141.125C454.962 141.429 455.821 141.912 456.56 142.546C457.298 143.179 457.902 143.951 458.335 144.816C458.768 145.682 459.023 146.623 459.084 147.586C459.145 148.549 459.012 149.515 458.691 150.427C458.371 151.339 457.87 152.179 457.217 152.898C456.565 153.617 455.773 154.202 454.89 154.618C454.006 155.033 453.048 155.272 452.07 155.319C451.092 155.367 450.114 155.223 449.193 154.895Z" fill="#587EEC"/>
<path d="M423.388 169.964C419.359 169.309 408.903 160.201 408.903 160.201C408.903 160.201 421.791 154.909 425.815 155.565C427.752 155.879 429.483 156.938 430.627 158.51C431.771 160.082 432.235 162.037 431.916 163.946C431.598 165.855 430.523 167.561 428.928 168.688C427.334 169.816 425.35 170.273 423.413 169.959L423.388 169.964Z" fill="#587EEC"/>
<path d="M448.841 114.217C448.836 118.243 456.244 129.922 456.244 129.922C456.244 129.922 463.642 118.258 463.642 114.237C463.668 113.264 463.496 112.297 463.136 111.391C462.776 110.485 462.236 109.659 461.547 108.962C460.858 108.265 460.035 107.711 459.126 107.333C458.216 106.955 457.239 106.76 456.252 106.76C455.265 106.76 454.287 106.955 453.378 107.333C452.468 107.711 451.645 108.265 450.956 108.962C450.267 109.659 449.727 110.485 449.367 111.391C449.007 112.297 448.835 113.264 448.861 114.237L448.841 114.217Z" fill="#587EEC"/>
<path d="M418.91 132.216C420.129 136.057 430.725 145.017 430.725 145.017C430.725 145.017 434.251 131.704 433.022 127.862C432.385 126.082 431.071 124.616 429.359 123.771C427.646 122.926 425.668 122.769 423.84 123.333C422.013 123.898 420.478 125.139 419.561 126.795C418.643 128.452 418.414 130.395 418.92 132.216H418.91Z" fill="#587EEC"/>
<path d="M392.284 153.644C392.828 157.615 401.732 168.222 401.732 168.222C401.732 168.222 407.478 155.689 406.934 151.703C406.826 150.737 406.523 149.803 406.044 148.954C405.564 148.105 404.917 147.36 404.14 146.761C403.364 146.162 402.474 145.723 401.522 145.468C400.571 145.214 399.577 145.149 398.6 145.279C397.623 145.408 396.683 145.729 395.833 146.222C394.984 146.715 394.243 147.371 393.654 148.15C393.066 148.929 392.641 149.817 392.406 150.76C392.171 151.704 392.129 152.684 392.284 153.644Z" fill="#587EEC"/>
<path opacity="0.25" d="M484.991 104.607C482.06 107.407 468.417 110.306 468.417 110.306C468.417 110.306 471.766 96.9534 474.697 94.149C476.112 92.8434 477.99 92.1377 479.928 92.1836C481.865 92.2295 483.707 93.0235 485.056 94.3945C486.406 95.7655 487.155 97.604 487.143 99.5142C487.131 101.424 486.358 103.253 484.991 104.607Z" fill="black"/>
<path opacity="0.25" d="M477.275 128.746C473.246 129.53 460.218 124.656 460.218 124.656C460.218 124.656 470.391 115.225 474.395 114.455C475.356 114.245 476.35 114.226 477.319 114.4C478.288 114.574 479.212 114.936 480.037 115.467C480.861 115.997 481.57 116.684 482.122 117.488C482.673 118.293 483.056 119.197 483.248 120.149C483.44 121.101 483.437 122.081 483.239 123.032C483.041 123.983 482.653 124.885 482.097 125.686C481.54 126.487 480.827 127.17 479.999 127.695C479.171 128.221 478.245 128.578 477.275 128.746Z" fill="black"/>
<path opacity="0.25" d="M449.193 154.895C445.336 153.579 436.567 142.878 436.567 142.878C436.567 142.878 450.165 139.81 454.033 141.125C454.962 141.429 455.821 141.912 456.56 142.546C457.298 143.179 457.902 143.951 458.335 144.816C458.768 145.682 459.023 146.623 459.084 147.586C459.145 148.549 459.012 149.515 458.691 150.427C458.371 151.339 457.87 152.179 457.217 152.898C456.565 153.617 455.773 154.202 454.89 154.618C454.006 155.033 453.048 155.272 452.07 155.319C451.092 155.367 450.114 155.223 449.193 154.895Z" fill="black"/>
<path opacity="0.25" d="M423.388 169.964C419.359 169.309 408.903 160.201 408.903 160.201C408.903 160.201 421.791 154.909 425.815 155.565C427.752 155.879 429.483 156.938 430.627 158.51C431.771 160.082 432.235 162.037 431.916 163.946C431.598 165.855 430.523 167.561 428.928 168.688C427.334 169.816 425.35 170.273 423.413 169.959L423.388 169.964Z" fill="black"/>
<path opacity="0.25" d="M448.841 114.217C448.836 118.243 456.244 129.922 456.244 129.922C456.244 129.922 463.642 118.258 463.642 114.237C463.668 113.264 463.496 112.297 463.136 111.391C462.776 110.485 462.236 109.659 461.547 108.962C460.858 108.265 460.035 107.711 459.126 107.333C458.216 106.955 457.239 106.76 456.252 106.76C455.265 106.76 454.287 106.955 453.378 107.333C452.468 107.711 451.645 108.265 450.956 108.962C450.267 109.659 449.727 110.485 449.367 111.391C449.007 112.297 448.835 113.264 448.861 114.237L448.841 114.217Z" fill="black"/>
<path opacity="0.25" d="M418.91 132.216C420.129 136.057 430.725 145.017 430.725 145.017C430.725 145.017 434.251 131.704 433.022 127.862C432.385 126.082 431.071 124.616 429.359 123.771C427.646 122.926 425.668 122.769 423.84 123.333C422.013 123.898 420.478 125.139 419.561 126.795C418.643 128.452 418.414 130.395 418.92 132.216H418.91Z" fill="black"/>
<path opacity="0.25" d="M392.284 153.644C392.828 157.615 401.732 168.222 401.732 168.222C401.732 168.222 407.478 155.689 406.934 151.703C406.826 150.737 406.523 149.803 406.044 148.954C405.564 148.105 404.917 147.36 404.14 146.761C403.364 146.162 402.474 145.723 401.522 145.468C400.571 145.214 399.577 145.149 398.6 145.279C397.623 145.408 396.683 145.729 395.833 146.222C394.984 146.715 394.243 147.371 393.654 148.15C393.066 148.929 392.641 149.817 392.406 150.76C392.171 151.704 392.129 152.684 392.284 153.644Z" fill="black"/>
<path d="M392.505 181.485C392.505 181.485 395.859 147.414 415.833 129.297C424.258 121.746 429.972 111.708 432.12 100.686C433.098 95.4466 433.585 90.1297 433.576 84.8024" stroke="#9AB1F3" stroke-width="2" stroke-miterlimit="10"/>
<path d="M446.096 73.3065C444.585 77.0392 433.284 85.1399 433.284 85.1399C433.284 85.1399 430.856 71.594 432.382 67.8613C433.117 66.069 434.544 64.6377 436.349 63.8823C438.155 63.1269 440.191 63.1092 442.009 63.8333C443.828 64.5573 445.28 65.9637 446.046 67.7431C446.813 69.5225 446.831 71.529 446.096 73.3214V73.3065Z" fill="#587EEC"/>
<path d="M448.972 98.4823C445.633 100.795 431.697 101.555 431.697 101.555C431.697 101.555 437.126 88.8776 440.465 86.5645C441.257 85.9804 442.16 85.5588 443.12 85.3247C444.08 85.0907 445.078 85.0489 446.055 85.2018C447.032 85.3547 447.968 85.6993 448.807 86.2151C449.647 86.7309 450.372 87.4074 450.942 88.2046C451.511 89.0019 451.912 89.9035 452.121 90.8563C452.331 91.8091 452.344 92.7935 452.16 93.7514C451.976 94.7093 451.6 95.6211 451.052 96.4329C450.504 97.2447 449.797 97.9399 448.972 98.4773V98.4823Z" fill="#587EEC"/>
<path d="M434.034 133.615C429.965 133.953 417.546 127.659 417.546 127.659C417.546 127.659 428.726 119.419 432.795 119.082C434.75 118.92 436.689 119.529 438.187 120.777C439.685 122.024 440.619 123.807 440.783 125.733C440.947 127.659 440.329 129.57 439.063 131.047C437.797 132.523 435.988 133.443 434.034 133.605V133.615Z" fill="#587EEC"/>
<path d="M416.654 157.684C412.701 158.677 399.385 154.572 399.385 154.572C399.385 154.572 408.989 144.59 412.942 143.577C414.84 143.092 416.856 143.37 418.546 144.35C420.237 145.33 421.463 146.931 421.955 148.802C422.447 150.672 422.165 152.659 421.171 154.325C420.177 155.991 418.552 157.199 416.654 157.684Z" fill="#587EEC"/>
<path d="M417.007 96.5563C418.659 100.234 430.212 107.973 430.212 107.973C430.212 107.973 432.176 94.3524 430.524 90.6743C429.701 88.9535 428.228 87.6182 426.419 86.9537C424.61 86.2893 422.609 86.3484 420.844 87.1184C419.079 87.8884 417.69 89.3083 416.973 91.0746C416.256 92.841 416.268 94.8137 417.007 96.5712V96.5563Z" fill="#587EEC"/>
<path d="M397.043 124.959C399.737 127.981 413.104 131.943 413.104 131.943C413.104 131.943 410.847 118.367 408.153 115.344C407.517 114.61 406.739 114.007 405.865 113.572C404.991 113.136 404.037 112.876 403.06 112.807C402.083 112.737 401.102 112.86 400.173 113.168C399.245 113.476 398.388 113.962 397.652 114.599C396.915 115.236 396.315 116.011 395.886 116.879C395.456 117.746 395.205 118.69 395.149 119.653C395.092 120.617 395.23 121.583 395.556 122.493C395.881 123.404 396.386 124.242 397.043 124.959Z" fill="#587EEC"/>
<path d="M381.486 155.197C383.621 158.622 396.116 164.752 396.116 164.752C396.116 164.752 396.222 150.998 394.102 147.568C393.046 145.985 391.407 144.868 389.53 144.456C387.654 144.044 385.688 144.369 384.05 145.361C382.413 146.354 381.232 147.936 380.758 149.772C380.284 151.608 380.554 153.554 381.511 155.197H381.486Z" fill="#587EEC"/>
<path d="M366.82 48.0562C367.656 45.0334 368.664 41.9956 369.369 38.933C368.523 41.9956 367.51 45.0433 366.82 48.0562Z" fill="url(#paint0_linear_4_6)"/>
<path d="M363.073 77.1732C363.003 77.0541 362.953 76.9349 362.897 76.8257C362.897 76.7761 362.847 76.7364 362.827 76.6868C362.717 76.7378 362.604 76.7825 362.489 76.8208C362.268 76.9052 362.041 76.9846 361.809 77.0491C361.578 77.1136 361.482 77.1484 361.306 77.1881C361.16 77.2377 361.01 77.2759 360.857 77.3023L360.898 77.3916C361.084 77.3519 361.265 77.3171 361.452 77.2675L361.502 77.883C361.714 77.883 361.91 77.8532 362.101 77.8532C362.192 77.8483 362.283 77.8483 362.373 77.8532C362.766 77.8532 363.109 77.8532 363.381 77.8532C363.275 77.6299 363.164 77.3966 363.073 77.1732ZM465.309 237.565C462.942 234.423 458.218 200.699 458.218 200.699C458.218 200.699 448.926 176.72 451.46 167.15C453.993 157.58 444.54 133.094 444.54 133.094C444.54 133.094 438.295 130.419 437.957 126.448C437.957 126.448 412.459 118.506 411.265 112.549C410.298 107.665 394.484 104.161 388.804 103.054C387.071 96.1643 385.329 89.7363 384.044 86.227C383.697 85.135 383.369 84.1918 383.067 83.4473C380.897 77.9872 374.188 77.4909 369.323 77.9277C369.113 76.9971 368.721 76.1155 368.17 75.3317C368.09 75.0622 367.93 74.8221 367.712 74.6417C367.607 74.554 367.496 74.4744 367.379 74.4035C367.291 74.2426 367.175 74.0981 367.037 73.9766C366.899 73.8539 366.747 73.7473 366.584 73.6589C366.467 73.5965 366.345 73.5418 366.221 73.4951C365.929 73.3856 365.627 73.3041 365.32 73.2519C364.961 73.1792 364.597 73.1327 364.232 73.1129C365.121 72.7297 365.913 72.1586 366.553 71.4401C366.989 70.9357 367.313 70.3475 367.505 69.7128C367.665 69.185 367.736 68.6351 367.717 68.0847C367.586 68.3115 367.434 68.5259 367.264 68.725C367.475 66.5261 366.297 64.2924 365.622 62.1034C364.804 59.2537 364.652 56.2583 365.178 53.3425C365.853 48.9447 367.525 44.4973 368.659 40.02C368.661 39.9953 368.661 39.9703 368.659 39.9456C369.253 37.7221 369.621 35.4457 369.756 33.1503C369.953 28.5192 368.749 23.898 366.815 19.6788C365.098 15.9412 362.565 12.2631 358.687 10.7442C355.806 9.59758 352.578 9.78124 349.475 9.59262C342.515 9.16574 335.878 6.75339 329.26 4.55944C322.642 2.36549 315.833 0.370092 308.868 0.752296C301.903 1.1345 294.736 4.44528 291.559 10.5208C290.551 12.417 289.972 14.5265 288.768 16.3085C286.512 19.6689 282.473 21.3516 279.104 23.6696C275.735 25.9877 272.768 29.2786 271.55 33.2049C270.884 35.3202 270.79 37.5701 271.278 39.7321C271.387 40.2204 271.529 40.7012 271.701 41.1716C272.179 42.4831 272.924 43.6842 273.891 44.7008C274.621 45.4521 275.459 46.0927 276.379 46.6019C277.535 47.2331 278.771 47.7073 280.056 48.0115C280.01 48.1605 279.965 48.3193 279.915 48.4732C279.834 48.7263 279.764 48.9695 279.688 49.2425C279.522 49.8531 279.366 50.4735 279.235 51.099C279.23 51.1435 279.23 51.1885 279.235 51.233C278.616 54.0563 278.306 56.9367 278.308 59.8251C278.307 61.1912 278.378 62.5563 278.52 63.9152C280.534 84.0578 297.406 99.9466 318.251 100.979C318.966 101.014 319.686 101.034 320.416 101.034C320.749 101.034 321.076 101.034 321.424 101.034C321.751 101.461 322.073 101.897 322.38 102.324C322.688 102.751 322.97 103.188 323.237 103.615L322.506 102.87L321.776 102.21C321.578 102.478 321.357 102.729 321.116 102.96C320.64 102.794 320.154 102.659 319.661 102.553C317.571 102.096 314.388 101.927 310.198 103.173C306.345 104.31 301.636 106.648 296.126 111.09L269.278 126.974L254.754 135.68L249.521 148.288C249.521 148.288 245.588 163.268 241.211 180.433C241.04 180.482 240.874 180.532 240.708 180.592C240.353 180.552 239.997 180.532 239.64 180.532C237.101 180.526 234.658 181.49 232.825 183.222C230.992 184.954 229.911 187.318 229.809 189.819C221.106 200.243 220.613 210.667 222.658 215.452C222.843 215.9 223.076 216.327 223.353 216.727C224.692 218.633 227.195 223.547 229.734 228.784C229.668 229.216 229.628 229.578 229.608 229.851C229.603 229.941 229.603 230.03 229.608 230.119C229.608 230.119 231.118 252.61 226.082 259.058C224.979 260.462 225.145 262.309 226.082 264.354C229.457 271.71 242.798 281.533 242.798 281.533C242.798 281.533 258.798 281.449 267.712 280.491C267.687 281.374 267.667 282.253 267.646 283.112C267.445 291.788 267.445 299.06 267.445 299.06L267.113 308.158C267.113 308.158 264.091 327.333 262.58 332.619C261.628 335.935 262.726 366.635 263.683 389.205H421.328C423.181 375.853 420.567 335.285 420.567 335.285C420.567 335.285 418.084 324.797 417.994 315.653C417.989 315.643 417.986 315.632 417.986 315.621C417.986 315.61 417.989 315.599 417.994 315.589C417.994 314.79 417.994 314.01 418.024 313.246L419.167 313.206L421.222 313.137H421.408C421.408 313.137 421.459 312.948 421.574 312.641C421.846 311.874 422.217 311.145 422.677 310.471C423.554 309.196 424.924 307.945 426.983 307.86C428.122 307.816 429.884 306.907 431.874 305.567C431.887 305.57 431.901 305.57 431.914 305.567C437.267 301.998 444.343 295.412 446.061 294.329C448.423 292.84 459.734 282.913 459.734 282.913C459.734 282.913 461.421 280.808 463.219 278.272L463.285 278.183C465.521 275.006 467.898 271.209 467.314 270.012C466.306 267.868 467.989 262.741 467.989 262.741C473.241 253.265 467.676 240.707 465.309 237.565ZM367.923 84.8917C367.972 85.0399 368.002 85.1932 368.014 85.3484C367.888 85.1846 367.762 85.0109 367.636 84.852L367.515 84.6932L367.43 84.5741L367.621 84.3159C367.621 84.3159 367.621 84.3159 367.621 84.3507C367.754 84.5116 367.856 84.6949 367.923 84.8917ZM366.231 80.4939C365.682 80.6031 365.249 80.7024 364.967 80.7768C364.609 80.1514 364.267 79.526 363.96 78.8906C364.767 79.3523 365.528 79.8892 366.231 80.4939ZM365.284 81.2782C365.283 81.2683 365.283 81.2583 365.284 81.2484L365.325 81.2782C365.531 81.4122 365.733 81.5412 365.919 81.6753C366.085 81.7944 366.236 81.9086 366.387 82.0277C366.286 82.2014 366.176 82.3801 366.065 82.5241C365.889 82.2511 365.722 81.988 365.561 81.715C365.461 81.6058 365.37 81.4569 365.284 81.2782ZM362.263 75.153C363.236 75.0584 364.216 75.0584 365.189 75.153C365.325 75.153 365.445 75.1778 365.566 75.1977C365.839 75.2393 366.108 75.3074 366.367 75.4012C366.962 76.2218 367.329 77.182 367.43 78.1858L367.158 78.2255L366.891 78.2751C366.387 78.3595 365.884 78.4439 365.491 78.5233L364.987 78.6276C364.317 78.7715 363.93 78.8807 363.914 78.8857C363.849 78.7516 363.783 78.6276 363.713 78.4985C363.602 78.2851 363.486 78.0667 363.386 77.8532C363.285 77.6398 363.154 77.3966 363.048 77.1732C362.978 77.0541 362.927 76.9349 362.872 76.8257C362.872 76.7761 362.822 76.7364 362.801 76.6868C362.772 76.6341 362.747 76.5794 362.726 76.523C362.419 75.9075 362.137 75.292 361.865 74.6864C361.834 74.6268 361.809 74.5623 361.784 74.5027L362.167 74.4779V74.607L362.263 75.153ZM242.103 383.07C242.062 375.679 241.518 367.683 240.007 360.178C239.363 356.986 238.698 353.794 238.023 350.657C237.852 349.873 237.686 349.099 237.52 348.324L235.968 348.528H235.827C231.597 328.867 227.175 311.544 227.175 311.544C227.175 311.544 218.392 278.49 219.409 275.855C219.54 275.512 219.374 274.589 219.001 273.234C216.876 265.719 208.002 245.01 204.9 237.932C204.9 237.902 204.875 237.868 204.864 237.843C204.361 236.656 203.998 235.857 203.887 235.624L204.618 225.061L204.658 224.426L204.754 223.076L204.713 223.041L204.754 222.416C204.754 222.416 197.089 216.221 184.105 211.749C183.601 211.57 183.068 211.396 182.539 211.227C183.188 206.954 184.05 202.129 185.173 197.428C185.279 196.957 185.394 196.5 185.515 196.039C185.621 195.577 185.742 195.13 185.863 194.679C186.054 193.944 186.261 193.219 186.472 192.504C187.172 192.286 187.862 192.043 188.542 191.785L188.804 191.685C197.18 188.473 204.091 182.379 208.257 174.53C212.424 166.682 213.564 157.611 211.467 148.998C210.271 144.113 208.063 139.524 204.98 135.521C204.749 135.214 204.502 134.906 204.255 134.603C204.008 134.3 203.711 133.963 203.434 133.655C204.89 130.394 206.607 127.292 206.748 124.12C206.773 123.718 206.773 123.315 206.748 122.914V122.864C206.562 120.824 205.645 118.759 203.51 116.59C200.392 113.408 195.955 111.795 191.518 111.021C187.081 110.246 182.559 110.226 178.097 109.705C170.699 108.832 163.492 106.583 156.093 105.893C146.981 105.061 137.806 106.602 129.487 110.36C123.982 112.842 118.407 117.181 118.075 123.132C117.803 128.051 121.278 132.766 120.401 137.626C119.53 142.401 114.595 146.159 115.028 150.988C115.194 152.874 116.176 154.562 117.405 156.066C117.828 156.562 118.276 157.059 118.74 157.555C120.532 159.426 122.507 161.223 123.509 163.581C123.549 163.68 123.589 163.78 123.625 163.879C124.476 166.207 124.093 169.15 121.988 170.486C122 170.494 122.008 170.507 122.013 170.52C122.043 170.56 122.074 170.59 122.099 170.629C122.102 170.621 122.102 170.613 122.099 170.605C122.845 171.477 123.851 172.095 124.974 172.372L125.402 172.501C125.055 172.873 124.728 173.26 124.395 173.667L124.179 173.95C123.624 174.686 123.119 175.457 122.668 176.258C122.411 176.705 122.164 177.152 121.958 177.598C121.267 178.96 120.768 180.408 120.472 181.902C119.933 185.188 120.694 188.613 119.878 191.829C118.87 195.8 115.683 198.848 113.885 202.536C110.48 209.485 112.409 217.641 113.094 225.314C114.026 235.738 112.515 246.207 111.009 256.561C110.21 262.067 109.411 267.579 108.612 273.095C106.597 286.94 104.583 300.786 102.568 314.631C101.833 319.704 100.962 325.055 97.5319 328.971H97.5671C97.5671 328.971 97.5671 329.001 97.5319 329.011C98.5614 329.454 99.6564 329.732 100.775 329.835C105.252 330.276 109.997 328.142 114.026 325.809C117.216 323.992 120.238 321.901 123.056 319.56C122.643 321.049 122.199 322.672 121.726 324.419C121.728 324.436 121.728 324.452 121.726 324.469C116.04 345.813 106.894 384.942 106.894 384.942C106.894 384.942 106.063 386.644 104.986 389.181H247.008C245.346 387.195 243.8 385.294 242.591 383.76L242.103 383.07ZM136.946 185.714C136.981 185.655 137.006 185.6 137.041 185.545C137.041 185.704 137.041 185.858 137.041 186.007C137.041 186.156 137.041 186.29 137.041 186.429C137.041 186.568 137.041 186.553 137.041 186.622C137.041 186.692 137.041 186.622 137.041 186.622C137.041 186.826 136.996 187.029 136.961 187.233C136.961 187.233 136.961 187.258 136.961 187.278L137.464 187.461L138.049 187.7C141.5 189.043 144.995 190.259 148.534 191.348C148.897 191.462 149.264 191.571 149.632 191.676L149.707 192.291C149.798 192.921 149.884 193.562 149.964 194.202C149.964 194.202 149.964 194.232 149.964 194.252C150.191 196.024 150.413 197.791 150.609 199.518C150.609 199.518 141.362 196.044 141.478 201.32C141.473 201.414 141.473 201.509 141.478 201.603C141.468 201.728 141.468 201.855 141.478 201.98C141.564 206.09 142.868 208.527 143.13 209.778C143.114 209.83 143.087 209.877 143.05 209.917C142.826 210.396 142.749 210.929 142.828 211.451C142.819 212.339 142.89 213.226 143.039 214.101C142.767 214.265 142.501 214.429 142.234 214.598C142.032 214.722 141.841 214.861 141.644 215C140.409 210.776 138.793 206.67 136.815 202.73C135.43 199.92 133.873 196.992 133.889 193.909C133.889 193.711 133.889 193.507 133.914 193.304C133.97 192.41 134.143 191.528 134.427 190.678C134.543 190.355 134.669 190.037 134.81 189.725C135.139 188.982 135.507 188.256 135.913 187.551C136.175 187.084 136.452 186.622 136.719 186.156C136.805 186.017 136.885 185.873 136.966 185.734L136.946 185.714ZM363.073 77.1732C363.003 77.0541 362.953 76.9349 362.897 76.8257C362.897 76.7761 362.847 76.7364 362.827 76.6868C362.717 76.7378 362.604 76.7825 362.489 76.8208C362.268 76.9052 362.041 76.9846 361.809 77.0491C361.578 77.1136 361.482 77.1484 361.306 77.1881L360.857 77.3023L360.898 77.3916C361.084 77.3519 361.265 77.3171 361.452 77.2675L361.502 77.883C361.714 77.883 361.91 77.8532 362.101 77.8532H362.373C362.766 77.8532 363.109 77.8532 363.381 77.8532C363.275 77.6299 363.164 77.3966 363.073 77.1732Z" fill="url(#paint1_linear_4_6)"/>
<path d="M253.031 150.08L250.01 151.395C250.01 151.395 230.313 226.813 230.313 232.909C230.313 239.004 272.078 272.921 272.078 272.921L278.595 229.568C278.595 229.568 269.238 130.151 253.031 150.08Z" fill="#E8F5FF"/>
<path d="M344.646 126.09L327.195 117.116C326.218 113.009 324.483 109.114 322.078 105.625C319.525 101.992 316.13 98.4227 311.9 96.5613C301.208 91.8359 357.125 67.0323 357.125 67.0323C358.006 70.012 359.043 72.9445 360.233 75.8181C363.114 82.8268 367.893 91.8905 374.052 94.4716C384.523 98.8645 344.646 126.09 344.646 126.09Z" fill="#FFB0B1"/>
<path opacity="0.1" d="M360.233 75.8181C357.844 84.0999 352.875 91.4328 346.029 96.7812C339.183 102.13 330.805 105.223 322.078 105.625C319.525 101.992 316.13 98.4227 311.9 96.5613C301.208 91.8359 357.125 67.0323 357.125 67.0323C358.006 70.012 359.043 72.9445 360.233 75.8181Z" fill="black"/>
<path d="M361.804 63.2947C361.806 71.4172 359.364 79.3578 354.787 86.1122C350.21 92.8667 343.703 98.1315 336.09 101.241C328.476 104.35 320.098 105.165 312.015 103.581C303.932 101.997 296.507 98.0865 290.68 92.3435C284.852 86.6004 280.883 79.2829 279.275 71.3166C277.667 63.3502 278.492 55.0928 281.646 47.5888C284.8 40.0847 290.141 33.6711 296.994 29.159C303.847 24.6469 311.903 22.2391 320.144 22.2401C325.622 22.2151 331.05 23.26 336.116 25.3142C341.181 27.3685 345.784 30.3915 349.657 34.2087C353.531 38.0259 356.598 42.5617 358.683 47.5539C360.768 52.5462 361.829 57.8961 361.804 63.2947Z" fill="#FFB0B1"/>
<path d="M367.817 120.819L356.456 146.948L346.434 164.291H314.353L304.995 140.579L308.788 115.989H333.289L349.108 115.111L354.451 113.353L357.896 115.279L367.817 120.819Z" fill="#575A89"/>
<path opacity="0.1" d="M363.904 85.9887C363.904 85.9887 370.99 87.4778 364.645 92.6053C358.299 97.7327 336.406 114.038 336.406 114.038C336.406 114.038 344.097 120.789 342.505 128.696L367.984 114.699L372.516 92.3025C372.516 92.3025 373.025 85.5717 363.904 85.9887Z" fill="black"/>
<path opacity="0.1" d="M341.417 114.039L325.211 116.674C325.211 116.674 328.555 128.86 326.883 132.32C326.832 132.427 326.79 132.539 326.757 132.652L320.144 150.268L325.1 164.102L342.253 141.046L336.406 132.32C336.406 132.32 342.586 124.249 346.262 121.449C349.939 118.65 341.417 114.039 341.417 114.039Z" fill="black"/>
<path d="M341.417 113.358L325.211 115.989C325.211 115.989 328.555 128.175 326.883 131.635C326.832 131.742 326.79 131.853 326.757 131.967L320.144 149.583L325.1 163.417L342.253 140.346L336.406 131.62C336.406 131.62 342.586 123.549 346.262 120.749C349.939 117.95 341.417 113.358 341.417 113.358Z" fill="#DCE6F2"/>
<path d="M364.584 84.6733C364.584 84.6733 371.67 86.1624 365.32 91.2899C358.969 96.4174 336.406 114.038 336.406 114.038C336.406 114.038 344.762 119.474 343.175 127.376L368.654 113.383L373.186 90.9871C373.186 90.9871 373.69 84.2563 364.584 84.6733Z" fill="#575A89"/>
<path opacity="0.1" d="M323.191 107.179C323.191 107.179 324.738 110.028 331.562 115.165C331.562 115.165 320.2 121.122 324.546 129.495L307.166 125.028L304.492 116.793L323.191 107.179Z" fill="black"/>
<path d="M322.521 106.523C322.521 106.523 324.067 109.373 330.892 114.51C330.892 114.51 319.53 120.437 323.876 128.835L306.501 124.368L303.827 116.138L322.521 106.523Z" fill="#575A89"/>
<path opacity="0.1" d="M367.817 120.819L356.456 146.948L346.454 164.291H314.353L304.995 140.579L308.783 115.989H315.597C315.486 121.727 317.611 128.468 317.475 130.975C317.243 135.094 323.71 157.322 323.71 157.322C323.71 157.322 337.242 135.75 342.586 133.829C345.945 132.623 353.061 122.586 357.891 115.279L367.817 120.819Z" fill="black"/>
<path d="M412.575 258.318L411.421 259.748C411.421 259.748 419.777 301.08 417.465 310.466C417.072 312.158 416.848 313.884 416.795 315.619V315.693C416.387 325.243 419.313 337.638 419.313 337.638C419.313 337.638 421.65 374.17 420.32 389.195H263.884C262.968 366.978 261.981 338.194 262.877 335.002C264.388 329.735 267.41 310.63 267.41 310.63L267.742 301.577C267.742 301.577 267.742 292.826 268.014 283.077C268.13 278.694 268.301 274.093 268.548 270.012C268.865 264.88 269.308 260.557 269.918 258.432C270.293 256.822 270.509 255.179 270.562 253.528C270.562 253.374 270.562 253.215 270.593 253.056C270.593 252.56 270.643 252.024 270.663 251.473C270.663 251.319 270.663 251.165 270.663 250.977C270.759 247.78 270.724 243.988 270.618 240.057C270.618 239.843 270.618 239.625 270.618 239.406C270.532 236.458 270.406 233.45 270.265 230.591C269.827 221.656 269.258 214.101 269.258 214.101L250.045 151.36L255.222 138.792L269.59 130.116L296.157 114.307C309.115 103.808 317.646 105.069 320.9 106.221C321.216 106.327 321.525 106.451 321.826 106.593C321.927 106.643 322.008 106.682 322.083 106.727C322.187 106.775 322.286 106.832 322.38 106.896C321.49 107.318 320.716 107.947 320.124 108.727C319.458 109.616 318.983 110.629 318.729 111.706C318.559 112.373 318.439 113.051 318.372 113.736C318.306 114.455 318.281 115.2 318.281 115.95C318.317 117.593 318.46 119.233 318.709 120.859C318.709 120.888 318.709 120.928 318.709 120.968C318.875 122.129 319.082 123.266 319.283 124.333C319.281 124.351 319.281 124.37 319.283 124.388C319.515 125.634 319.747 126.785 319.903 127.778C319.933 127.957 319.958 128.121 319.983 128.274C320.094 128.93 320.146 129.595 320.139 130.26C320.196 131.866 320.415 133.462 320.794 135.025C320.925 135.68 321.076 136.38 321.242 137.11C321.469 138.102 321.716 139.185 321.983 140.287C322.129 140.892 322.285 141.517 322.446 142.138C322.506 142.386 322.572 142.634 322.632 142.887L322.733 143.28C323.806 147.484 324.969 151.668 325.684 154.2C326.107 155.689 326.374 156.607 326.374 156.607C326.374 156.607 333.959 144.521 340.012 137.641C340.103 137.542 340.184 137.447 340.269 137.358C340.869 136.678 341.458 136.057 342.022 135.511C343.256 134.3 344.364 133.437 345.255 133.119C345.445 133.05 345.629 132.966 345.804 132.866C348.282 131.481 352.281 126.453 356.023 121.186C356.39 120.69 356.748 120.149 357.11 119.638C357.941 118.456 358.747 117.27 359.508 116.133C360.092 115.265 360.651 114.421 361.18 113.617C363.698 109.755 365.471 106.876 365.471 106.876L368.966 106.722L369.575 106.692H369.983L385.852 105.968C385.852 105.968 386.537 106.082 387.665 106.305C387.726 106.305 387.786 106.305 387.852 106.345C393.482 107.447 409.125 110.936 410.082 115.776C411.25 121.702 436.482 129.61 436.482 129.61C436.814 133.581 442.994 136.196 442.994 136.196C442.994 136.196 452.351 160.568 449.848 170.118C447.375 179.549 456.284 202.879 456.521 203.534L454.814 205.658L412.575 258.318Z" fill="#E8F5FF"/>
<path opacity="0.1" d="M363.899 84.2565C363.899 84.2565 379.345 79.9381 382.856 88.828C386.366 97.718 394.218 133.62 394.218 133.62C394.218 133.62 373.831 137.408 368.487 133.62C365.353 131.373 361.474 130.373 357.624 130.821L346.096 138.559L342.692 137.566C342.692 137.566 361.134 110.544 365.143 101.361C369.152 92.1785 370.507 88.0735 363.899 84.2565Z" fill="black"/>
<path d="M363.23 82.2709C363.23 82.2709 378.686 77.9525 382.211 86.8425C385.737 95.7324 393.573 131.635 393.573 131.635C393.573 131.635 373.191 135.422 367.843 131.635C364.71 129.387 360.833 128.387 356.985 128.835L345.447 136.574L342.042 135.581C342.042 135.581 360.485 108.559 364.494 99.3758C368.502 90.193 369.837 86.0979 363.23 82.2709Z" fill="#E8F5FF"/>
<path opacity="0.1" d="M259.548 225.498C259.548 225.498 271.076 228.298 273.252 234.721C275.428 241.144 264.731 241.307 264.731 241.307C264.731 241.307 258.214 229.945 259.548 225.498Z" fill="black"/>
<path opacity="0.1" d="M302.487 272.921C302.487 272.921 274.254 329.899 280.771 335.335C287.288 340.77 302.487 272.921 302.487 272.921Z" fill="black"/>
<path opacity="0.1" d="M341.417 230.933C341.417 230.933 363.975 286.278 359.462 294.826C354.95 303.373 369.152 294.826 369.152 294.826L341.417 230.933Z" fill="black"/>
<path d="M372.829 285.603C372.829 285.603 296.64 289.227 318.865 312.611C341.09 335.995 386.699 313.603 386.699 313.603L372.829 285.603Z" fill="#FFB0B1"/>
<path opacity="0.1" d="M361.804 63.2946C361.811 68.6803 360.738 74.0142 358.647 78.9898C357.947 79.0692 357.247 79.1189 356.572 79.1486C355.564 76.9696 356.103 74.453 356.123 72.0555C356.144 69.6581 355.247 66.8387 352.905 66.1934C348.237 64.8979 345.013 73.5 340.41 71.9463C336.885 70.765 337.807 65.4935 335.777 62.4508C334.17 60.0434 330.952 59.3634 328.449 57.8544C323.126 54.633 323.287 49.4807 320.814 44.6063C318.226 39.4987 312.756 41.0077 308.007 44.0206C304.401 46.3139 301.289 49.3864 297.431 51.213C294.092 52.8014 290.34 53.3772 286.638 53.4616C284.359 53.5486 282.08 53.3112 279.87 52.7567C282.469 43.1241 288.535 34.7523 296.935 29.2024C305.336 23.6525 315.498 21.3034 325.526 22.5933C335.554 23.8831 344.764 28.7238 351.438 36.2126C358.112 43.7014 361.795 53.3271 361.799 63.2946H361.804Z" fill="black"/>
<path d="M308.022 42.7054C304.411 44.9986 301.304 48.0662 297.446 49.9028C294.107 51.4862 290.355 52.062 286.653 52.1463C282.121 52.2456 277.241 51.4614 274.143 48.235C271.298 45.2567 270.618 40.6753 271.822 36.7688C273.025 32.8624 275.911 29.6211 279.3 27.2733C282.69 24.9255 286.623 23.3024 288.869 19.942C290.058 18.165 290.632 16.0703 291.619 14.1791C294.777 8.12838 301.878 4.85235 308.742 4.44533C315.607 4.0383 322.411 6.05356 328.948 8.23758C335.485 10.4216 342.072 12.824 348.972 13.2757C352.044 13.4643 355.237 13.2757 358.088 14.4223C361.92 15.9561 364.433 19.6243 366.146 23.357C368.064 27.5662 369.258 32.1625 369.057 36.7589C368.634 46.5721 362.056 56.2017 364.947 65.6029C365.713 68.1096 367.148 70.6808 366.382 73.1874C365.264 76.8456 360.475 77.6796 356.602 77.8533C355.595 75.6742 356.134 73.1527 356.154 70.7602C356.174 68.3677 355.277 65.5433 352.941 64.8981C348.267 63.6125 345.044 72.1996 340.451 70.651C336.951 69.4647 337.857 64.1982 335.822 61.1554C334.216 58.7431 330.993 58.068 328.495 56.5591C323.171 53.3376 323.332 48.1853 320.86 43.311C318.251 38.1785 312.776 39.6875 308.022 42.7054Z" fill="#575A89"/>
<path d="M234.145 231.588L230.303 232.909C230.303 232.909 231.813 255.305 226.777 261.728C221.741 268.151 243.316 284.119 243.316 284.119C243.316 284.119 272.889 283.955 273.725 281.637C274.561 279.319 272.214 240.141 272.214 240.141C272.214 240.141 256.34 234.046 257.675 224.332C257.675 224.332 252.83 247.219 245.648 246.231C238.466 245.244 230.313 239.332 234.145 231.588Z" fill="#E8F5FF"/>
<path opacity="0.1" d="M246.963 253.161C252.562 253.161 257.101 249.069 257.101 244.023C257.101 238.976 252.562 234.884 246.963 234.884C241.364 234.884 236.825 238.976 236.825 244.023C236.825 249.069 241.364 253.161 246.963 253.161Z" fill="black"/>
<path d="M258.047 232.249C258.047 232.249 256.033 171.652 238.497 185.153C220.961 198.654 220.789 214.801 224.128 219.571C227.467 224.341 238.174 248.222 238.174 248.222C239.849 249.178 241.73 249.73 243.663 249.832C245.596 249.935 247.526 249.584 249.295 248.809C251.064 248.034 252.621 246.857 253.84 245.375C255.058 243.892 255.903 242.146 256.305 240.28L258.047 232.249Z" fill="#FFB0B1"/>
<path opacity="0.1" d="M367.44 78.7566C367.358 78.4904 367.201 78.2527 366.986 78.0716C366.12 77.2923 364.257 77.0193 361.447 77.2576L361.562 78.568C365.309 78.2503 366.05 78.9849 366.145 79.109V79.2331L366.261 79.3969C366.728 80.0158 367.059 80.7239 367.233 81.4761C367.406 82.2283 367.418 83.0079 367.268 83.765C366.448 87.8104 361.406 91.0318 361.356 91.0665L361.235 91.136L361.16 91.2502C358.984 94.4319 346.68 103.411 343.462 105.734L343.18 105.417C341.74 106.648 329.079 117.573 328.394 121.757C327.95 124.383 324.949 125.4 323.861 125.683C322.713 124.825 318.986 121.901 317.047 118.625C315.229 115.542 322.547 109.526 323.191 107.179L322.184 106.161C322.078 106.538 312.681 115.195 315.294 119.618C317.389 123.167 321.217 126.204 322.557 127.207C322.129 131.039 319.464 153.539 315.37 158.87C310.283 165.497 306.008 198.893 306.481 210.552C306.899 220.912 304.154 240.478 294.988 248.882C293.401 250.401 291.487 251.546 289.388 252.234C287.289 252.922 285.059 253.133 282.866 252.853H282.755H282.644C282.513 252.853 269.218 254.193 258.047 244.911C248.907 237.331 243.729 224.962 242.652 208.135H242.43L242.339 203.236C244.818 202.855 247.05 201.542 248.566 199.572C250.083 197.603 250.766 195.131 250.472 192.676C250.179 190.221 248.931 187.973 246.991 186.406C245.051 184.838 242.57 184.073 240.07 184.271C237.569 184.468 235.244 185.613 233.582 187.465C231.92 189.317 231.052 191.731 231.158 194.201C231.265 196.672 232.339 199.005 234.154 200.711C235.97 202.417 238.385 203.363 240.894 203.35H241.005L241.095 208.219L240.652 208.249C241.76 225.622 247.199 238.473 256.768 246.41C264.041 252.35 273.331 255.347 282.76 254.794C283.429 254.866 284.102 254.902 284.775 254.903C289.097 254.925 293.255 253.277 296.358 250.312C306.013 241.451 308.949 221.165 308.49 210.453C307.987 198.099 312.474 165.904 316.976 160.042C321.388 154.289 324.062 131.873 324.531 127.53C326.127 127.088 329.738 125.693 330.353 122.07C330.796 119.449 339.252 111.373 344.454 106.901L344.298 106.722C347.098 104.707 355.806 98.3532 360.122 94.2731C361.462 93.0073 362.791 91.7416 364.181 90.5354C365.853 89.0761 367.979 86.7581 368.538 84.0181C368.728 83.1137 368.729 82.1803 368.54 81.2755C368.352 80.3707 367.977 79.5135 367.44 78.7566Z" fill="black"/>
<path d="M322.386 126.894C322.174 126.75 317.158 123.211 314.645 118.952C312.036 114.53 321.434 105.878 321.534 105.501L322.542 106.518C321.902 108.861 314.584 114.882 316.403 117.96C318.694 121.846 323.519 125.246 323.569 125.281L322.386 126.894Z" fill="#353146"/>
<path d="M342.808 106.697L342.022 105.63C342.183 105.516 358.002 94.2384 360.495 90.5901L360.575 90.4809L360.691 90.4065C360.742 90.3717 365.783 87.1553 366.604 83.1049C366.755 82.3487 366.744 81.5695 366.57 80.8179C366.397 80.0663 366.065 79.359 365.597 78.7418L365.481 78.573V78.4539C365.38 78.3249 364.64 77.5952 360.893 77.9129L360.777 76.5975C363.592 76.3592 365.451 76.6322 366.317 77.4115C366.532 77.5944 366.691 77.8336 366.775 78.1015C367.32 78.8562 367.702 79.7128 367.897 80.6186C368.093 81.5244 368.099 82.4601 367.913 83.368C367.354 86.1129 365.234 88.4309 363.557 89.8853C362.172 91.0915 360.837 92.3671 359.503 93.6229C354.441 98.403 343.362 106.305 342.808 106.697Z" fill="#E8F5FF"/>
<path d="M241.689 201.508L240.355 201.532L240.504 209.527L241.838 209.503L241.689 201.508Z" fill="#E8F5FF"/>
<path d="M240.244 202.72C245.626 202.72 249.989 198.42 249.989 193.115C249.989 187.81 245.626 183.51 240.244 183.51C234.862 183.51 230.499 187.81 230.499 193.115C230.499 198.42 234.862 202.72 240.244 202.72Z" fill="#587EEC"/>
<path d="M240.244 201.092C244.714 201.092 248.338 197.52 248.338 193.115C248.338 188.71 244.714 185.138 240.244 185.138C235.774 185.138 232.151 188.71 232.151 193.115C232.151 197.52 235.774 201.092 240.244 201.092Z" fill="#E8F5FF"/>
<path d="M284.14 254.263C283.467 254.264 282.795 254.229 282.126 254.158C272.697 254.706 263.409 251.71 256.134 245.775C246.565 237.833 241.136 224.997 240.018 207.609L242.032 207.485C243.11 224.312 248.287 236.686 257.433 244.261C268.603 253.518 281.894 252.203 282.025 252.203H282.136H282.247C284.441 252.481 286.671 252.269 288.77 251.582C290.87 250.894 292.785 249.749 294.374 248.232C303.535 239.828 306.28 220.261 305.862 209.902C305.358 198.232 309.634 164.837 314.725 158.215C319.182 152.413 321.947 126.259 321.978 125.996L322.053 125.251L322.798 125.122C322.844 125.122 327.195 124.308 327.739 121.102C328.444 116.922 341.085 105.997 342.52 104.761L343.835 106.25C338.612 110.718 330.156 118.799 329.733 121.424C329.119 125.058 325.508 126.448 323.916 126.884C323.413 131.233 320.759 153.644 316.362 159.397C311.86 165.259 307.372 197.453 307.876 209.808C308.309 220.519 305.403 240.811 295.749 249.666C292.64 252.639 288.471 254.289 284.14 254.263Z" fill="#353146"/>
<g opacity="0.1">
<path opacity="0.1" d="M366.095 51.5605C366.921 48.5525 367.918 45.5247 368.613 42.477C367.782 45.5396 366.78 48.5525 366.095 51.5605Z" fill="black"/>
<path opacity="0.1" d="M357.67 75.1977C356.662 73.0186 357.201 70.497 357.221 68.1045C357.241 65.712 356.345 62.9125 354.008 62.2424C349.335 60.9568 346.111 69.549 341.518 67.9953C337.993 66.809 338.925 61.5425 336.89 58.4998C335.283 56.0875 332.065 55.4124 329.567 53.9034C324.239 50.682 324.4 45.5297 321.932 40.6554C319.339 35.5428 313.874 37.0517 309.12 40.0696C305.509 42.3629 302.402 45.4354 298.544 47.267C295.205 48.8504 291.453 49.4262 287.751 49.5106C283.244 49.6148 278.338 48.8256 275.241 45.5992C272.854 43.1173 271.993 39.479 272.486 36.0689C272.401 36.3022 272.325 36.5355 272.25 36.7688C271.041 40.6752 271.746 45.2666 274.571 48.2349C277.669 51.4613 282.574 52.2456 287.081 52.1463C290.788 52.0619 294.535 51.4861 297.879 49.9027C301.747 48.0661 304.854 44.9986 308.455 42.7054C313.209 39.6874 318.679 38.1785 321.267 43.2911C323.735 48.1654 323.579 53.3177 328.902 56.5392C331.421 58.0283 334.619 58.7232 336.23 61.1355C338.245 64.1882 337.353 69.4447 340.859 70.6311C345.447 72.1797 348.67 63.5926 353.343 64.8781C355.68 65.5234 356.582 68.3527 356.557 70.7403C356.531 73.1278 356.008 75.6543 357.005 77.8334C360.878 77.6596 365.667 76.8406 366.79 73.1675C366.945 72.6404 367.016 72.0929 367.002 71.5444C365.365 74.329 361.155 75.0438 357.67 75.1977Z" fill="black"/>
</g>
<path opacity="0.1" d="M448.69 197.503L454.537 203.598C454.537 203.598 459.216 237.188 461.552 240.33C463.889 243.472 469.409 255.97 464.227 265.356C464.227 265.356 462.555 270.464 463.557 272.603C464.559 274.743 456.043 285.449 456.043 285.449C456.043 285.449 444.847 295.327 442.505 296.811C440.163 298.295 427.804 310.149 423.629 310.313C419.454 310.476 418.09 315.584 418.09 315.584L394.53 316.408C394.53 316.408 381.516 315.738 378.686 317.55C378.686 317.55 380.197 297.953 365.657 285.107L384.201 278.52C384.201 278.52 391.221 275.542 393.392 272.43C394.757 270.522 396.694 269.083 398.932 268.315C398.932 268.315 404.109 264.691 404.275 262.716C404.441 260.74 410.606 258.318 410.606 258.318L407.116 228.958L408.954 180.214C408.954 180.214 414.801 139.373 427.165 141.681C439.529 143.989 448.69 197.503 448.69 197.503Z" fill="black"/>
<path d="M450.704 197.503L456.551 203.598C456.551 203.598 461.23 237.188 463.567 240.33C465.904 243.472 471.423 255.97 466.241 265.356C466.241 265.356 464.574 270.464 465.576 272.603C466.578 274.743 458.057 285.449 458.057 285.449C458.057 285.449 446.862 295.327 444.52 296.811C442.178 298.295 429.819 310.149 425.644 310.313C421.469 310.476 420.104 315.584 420.104 315.584L396.544 316.408C396.544 316.408 383.521 315.738 380.7 317.55C380.7 317.55 382.211 297.953 367.672 285.107L386.215 278.52C386.215 278.52 393.236 275.542 395.406 272.43C396.772 270.522 398.709 269.083 400.946 268.315C400.946 268.315 406.123 264.691 406.289 262.716C406.456 260.74 412.62 258.318 412.62 258.318L409.13 228.958L410.968 180.214C410.968 180.214 416.815 139.373 429.179 141.681C441.543 143.989 450.704 197.503 450.704 197.503Z" fill="#E8F5FF"/>
<path opacity="0.1" d="M428.968 246.743C428.968 246.743 446.177 242.275 450.689 247.735C455.202 253.195 428.968 246.743 428.968 246.743Z" fill="black"/>
<path opacity="0.1" d="M424.959 254.233C430.806 258.268 448.851 258.432 448.851 258.432L424.959 254.233Z" fill="black"/>
<path opacity="0.1" d="M433.813 274.405C434.316 274.569 446.217 287.088 451.213 283.3C456.209 279.513 433.813 274.405 433.813 274.405Z" fill="black"/>
<path opacity="0.1" d="M273.539 169.344C273.539 169.344 277.034 193.06 275.312 202.72C273.589 212.379 279.875 224.347 279.875 224.347L273.539 169.344Z" fill="black"/>
<path d="M196.162 178.988C192.133 182.101 189.192 189.467 187.061 197.562C183.345 211.684 182.131 228.059 182.131 228.059C182.131 228.059 150.05 220.812 152.387 217.521C153.857 215.452 151.883 199.856 150.236 188.548C149.254 181.867 148.378 176.68 148.378 176.68C148.378 176.68 207.191 170.421 196.162 178.988Z" fill="#FFB0B1"/>
<path opacity="0.1" d="M196.162 178.328C192.133 181.445 189.192 188.807 187.061 196.902C180.67 198.815 173.872 198.988 167.389 197.402C160.905 195.816 154.979 192.53 150.236 187.893C149.254 181.207 148.378 176.02 148.378 176.02C148.378 176.02 207.191 169.766 196.162 178.328Z" fill="black"/>
<path d="M213.406 160.588C213.409 169.221 210.314 177.578 204.667 184.178C199.02 190.778 191.186 195.196 182.552 196.651C173.917 198.106 165.039 196.503 157.488 192.127C149.938 187.75 144.201 180.882 141.294 172.738C138.388 164.594 138.498 155.699 141.605 147.627C144.713 139.555 150.618 132.827 158.275 128.634C165.932 124.44 174.847 123.051 183.443 124.714C192.038 126.376 199.76 130.981 205.242 137.715C210.525 144.202 213.404 152.27 213.406 160.588Z" fill="#FFB0B1"/>
<path opacity="0.1" d="M242.656 389.195H232.08L231.189 370.785L230.257 351.73C230.257 351.73 232.659 351.377 236.487 350.851L238.033 350.647H238.159C238.995 354.514 239.821 358.485 240.617 362.451C241.941 369.492 242.631 376.634 242.677 383.795C242.677 384.291 242.677 384.788 242.677 385.254C242.707 386.58 242.677 387.905 242.656 389.195Z" fill="black"/>
<path d="M240.627 389.195H107.992C108.566 387.91 108.949 387.131 108.949 387.131C108.949 387.131 119.56 341.375 124.954 322.017C124.956 322 124.956 321.984 124.954 321.967C125.628 319.338 126.442 316.745 127.392 314.199C127.453 314.026 127.533 313.86 127.629 313.703C130.298 309.424 133.642 304.813 128.963 298.226C124.284 291.639 125.941 262.656 125.941 262.656C125.941 262.656 131.622 237.952 137.636 224.778C138.548 222.738 139.843 220.885 141.453 219.318C141.976 218.814 142.535 218.346 143.125 217.919C143.574 217.586 144.041 217.28 144.525 217L144.621 216.941C147.147 215.529 149.952 214.671 152.845 214.424C154.9 214.212 156.975 214.269 159.014 214.593C168.765 216.003 176.571 218.36 182.776 221.046C199.592 228.327 204.683 238.086 204.784 238.29L204.824 238.374C205.499 239.928 215.37 262.641 218.926 273.239C219.847 275.999 220.351 277.939 220.15 278.471C219.142 281.101 227.835 314.035 227.835 314.035C227.835 314.035 231.864 329.919 235.893 348.538C236.069 349.312 236.235 350.087 236.396 350.871C237.117 354.251 237.832 357.696 238.522 361.136C239.859 368.225 240.548 375.418 240.582 382.629C240.656 384.875 240.671 387.064 240.627 389.195Z" fill="#EB5569"/>
<path opacity="0.1" d="M152.054 203.097C152.054 203.097 142.904 199.622 143.014 204.894C143.125 210.165 145.245 212.687 144.576 213.456C143.906 214.226 144.908 218.837 144.908 218.837C144.908 218.837 157.272 218.837 162.953 221.358C168.634 223.88 189.574 228.933 192.249 230.472C194.923 232.01 204.839 238.91 204.839 238.91L205.731 225.846C205.731 225.846 195.482 217.502 178.666 213.223C161.85 208.944 152.054 203.097 152.054 203.097Z" fill="black"/>
<path d="M152.054 202.437C152.054 202.437 142.904 198.962 143.014 204.234C143.125 209.505 145.245 212.027 144.576 212.796C143.906 213.565 144.908 218.177 144.908 218.177C144.908 218.177 157.272 218.177 162.953 220.703C168.634 223.23 189.574 228.278 192.249 229.812C194.923 231.345 204.839 238.25 204.839 238.25L205.741 225.225C205.741 225.225 195.492 216.881 178.676 212.602C161.86 208.324 152.054 202.437 152.054 202.437Z" fill="#EB5569"/>
<path opacity="0.1" d="M179.678 233.877C179.678 233.877 197.164 252.535 196.273 257.702C195.381 262.87 179.678 233.877 179.678 233.877Z" fill="black"/>
<path opacity="0.1" d="M151.274 301.279C151.274 301.279 138.457 312.919 134.679 313.579C130.902 314.239 137.575 316.433 141.916 314.681C146.258 312.928 155.514 308.317 155.514 308.317L151.274 301.279Z" fill="black"/>
<path d="M245.834 389.196H215.944C211.764 385.622 207.811 382.311 205.292 380.32C201.263 377.134 198.358 372.443 196.504 368.671C196.086 367.812 195.724 367.008 195.416 366.278C194.866 365.021 194.382 363.737 193.966 362.431L216.1 349.476C217.324 350.501 218.473 351.609 219.54 352.792L219.807 353.095C221.036 354.524 222.119 356.147 222.214 357.478C222.325 359.026 226.697 365.017 231.164 370.77C235.696 376.622 240.34 382.217 240.647 382.594C240.647 382.594 241.412 383.621 242.661 385.2C243.543 386.341 244.631 387.711 245.834 389.196Z" fill="#FFB0B1"/>
<path opacity="0.1" d="M205.242 137.715C204.18 140.078 203.228 142.53 203.087 145.161C202.689 152.755 203.334 169.736 194.802 173.548C190.577 175.424 186.054 171.305 181.421 171.205C178.087 171.136 175.03 173.221 172.995 175.827C170.961 178.432 169.696 181.525 168.221 184.473C166.878 187.149 165.33 189.721 163.593 192.167C163.073 192.915 162.501 193.627 161.88 194.296C156.678 192.133 152.046 188.828 148.336 184.632C144.626 180.437 141.937 175.462 140.473 170.088C139.01 164.713 138.81 159.08 139.89 153.618C140.97 148.155 143.301 143.008 146.704 138.568C150.108 134.128 154.496 130.513 159.532 127.997C164.568 125.481 170.121 124.132 175.767 124.051C181.413 123.971 187.002 125.162 192.11 127.533C197.218 129.905 201.71 133.394 205.242 137.735V137.715Z" fill="black"/>
<path d="M202.417 143.821C202.014 151.415 202.664 168.396 194.127 172.203C189.902 174.079 185.379 169.964 180.746 169.865C177.412 169.791 174.36 171.88 172.32 174.481C170.281 177.082 169.027 180.18 167.546 183.133C166.202 185.809 164.655 188.381 162.918 190.827C161.88 192.276 160.732 193.73 159.135 194.544C156.355 195.974 152.986 195.17 150.005 194.252C146.137 193.05 142.326 191.697 138.572 190.191C138.658 189.633 138.702 189.069 138.703 188.504C138.592 188.712 138.472 188.906 138.351 189.114L138.114 189.521C137.686 190.266 137.268 191.01 136.885 191.775C136.739 192.068 136.598 192.37 136.472 192.673C135.966 193.8 135.648 195 135.53 196.227C135.274 199.538 136.931 202.68 138.401 205.658C144.057 217.179 147.552 230.65 143.296 242.737C141.453 247.993 138.26 252.664 135.928 257.742C131.852 266.736 130.652 276.74 132.489 286.422C133.652 292.438 135.984 298.395 135.41 304.495C134.402 314.993 125.216 322.806 116.015 328.177C111.044 331.066 104.96 333.637 99.6824 331.354C103.047 327.482 103.913 322.126 104.638 317.073C106.622 303.291 108.612 289.501 110.606 275.706C111.402 270.216 112.196 264.726 112.988 259.236C114.469 248.922 115.97 238.493 115.043 228.114C114.368 220.465 112.464 212.344 115.829 205.42C117.606 201.752 120.774 198.714 121.761 194.763C122.572 191.551 121.817 188.136 122.351 184.865C122.643 183.377 123.137 181.934 123.821 180.577C124.692 178.734 125.828 177.025 127.195 175.504C125.846 175.117 124.587 174.585 123.821 173.474C125.987 172.084 126.314 168.952 125.332 166.599C124.35 164.246 122.386 162.454 120.618 160.598C118.85 158.741 117.148 156.577 116.927 154.046C116.498 149.226 121.384 145.493 122.245 140.738C123.116 135.899 119.671 131.193 119.948 126.294C120.271 120.372 125.79 116.069 131.24 113.572C139.463 109.82 148.546 108.279 157.569 109.105C164.912 109.79 172.018 112.028 179.341 112.897C183.758 113.393 188.235 113.443 192.621 114.207C197.008 114.972 201.405 116.585 204.492 119.757C212.63 128.12 202.88 135.005 202.417 143.821Z" fill="#575A89"/>
<path opacity="0.1" d="M195.608 368.676C193.039 367.579 188.366 368.234 180.343 365.826C172.32 363.419 170.774 352.539 170.774 352.539V352.504C170.678 352.256 169.933 350.638 164.887 344.969C159.311 338.71 147.26 307.096 147.26 307.096C147.26 307.096 136.573 295.784 136.91 291.614C137.248 287.445 135.012 276.351 135.233 263.942C135.455 251.533 159.291 243.303 159.291 243.303C205.187 235.286 194.379 287.435 193.155 291.386C191.931 295.337 198.282 306.009 198.282 306.009C197.386 310.655 201.958 317.847 201.958 317.847C201.958 317.847 203.066 324.211 203.293 326.628C203.306 326.74 203.331 326.85 203.369 326.956C204.104 329.234 210.097 331.299 212.535 332.555C215.098 333.875 223.342 345.401 223.342 345.401C225.12 353.864 198.166 369.787 195.608 368.676Z" fill="black"/>
<path d="M196.943 366.69C194.379 365.588 189.7 366.248 181.683 363.836C173.665 361.424 172.114 350.553 172.114 350.553V350.518C172.023 350.265 171.273 348.652 166.226 342.983C160.651 336.724 148.6 305.106 148.6 305.106C148.6 305.106 137.913 293.798 138.245 289.629C138.577 285.459 136.351 274.365 136.573 261.966C136.795 249.567 160.616 241.342 160.616 241.342C206.511 233.326 195.704 285.474 194.48 289.425C193.256 293.376 199.607 304.048 199.607 304.048C198.71 308.694 203.283 315.887 203.283 315.887C203.283 315.887 204.391 322.25 204.623 324.667C204.631 324.779 204.655 324.889 204.693 324.995C205.429 327.273 211.422 329.338 213.864 330.594C216.423 331.909 224.672 343.44 224.672 343.44C226.46 351.888 199.506 367.812 196.943 366.69Z" fill="#EB5569"/>
<path opacity="0.1" d="M161.523 268.568C161.523 268.568 181.572 289.415 186.805 289.415C192.037 289.415 161.523 268.568 161.523 268.568Z" fill="black"/>
<path d="M196.942 366.69C194.379 365.588 189.7 366.248 181.683 363.836C173.665 361.424 172.114 350.553 172.114 350.553V350.518C177.427 347.044 190.884 337.231 196.187 333.642C199.919 331.125 202.966 327.427 204.749 324.975C205.484 327.254 211.477 329.319 213.92 330.574C216.478 331.89 224.727 343.42 224.727 343.42C226.46 351.888 199.506 367.812 196.942 366.69Z" fill="#FF748E"/>
<g opacity="0.1">
<path opacity="0.1" d="M123.851 173.528C123.876 173.568 123.912 173.603 123.942 173.642C124.093 173.454 124.249 173.265 124.41 173.086C124.239 173.251 124.052 173.399 123.851 173.528Z" fill="black"/>
<path opacity="0.1" d="M135.535 196.282C135.747 193.527 137.243 191.1 138.643 188.677C137.726 188.33 136.81 187.978 135.903 187.61C135.989 187.053 136.033 186.491 136.034 185.928C134.619 188.409 133.078 190.852 132.861 193.646C132.604 196.962 134.261 200.099 135.732 203.077C141.393 214.593 144.883 228.064 140.627 240.156C138.779 245.407 135.591 250.083 133.259 255.161C129.184 264.153 127.986 274.156 129.824 283.836C130.978 289.857 133.314 295.809 132.74 301.909C131.733 312.407 122.552 320.22 113.346 325.586C109.584 327.78 105.187 329.79 100.982 329.646C100.592 330.264 100.158 330.853 99.6824 331.408C104.965 333.706 111.044 331.12 116.015 328.222C125.226 322.861 134.427 315.068 135.435 304.55C136.009 298.449 133.672 292.498 132.514 286.477C130.675 276.798 131.87 266.796 135.938 257.802C138.255 252.729 141.478 248.048 143.306 242.797C147.562 230.705 144.067 217.234 138.411 205.718C136.946 202.72 135.279 199.598 135.535 196.282Z" fill="black"/>
<path opacity="0.1" d="M204.482 119.816C203.986 119.315 203.454 118.851 202.89 118.426C208.994 126.229 200.181 132.861 199.743 141.259C199.35 148.854 199.994 165.839 191.458 169.642C187.238 171.523 182.71 167.403 178.082 167.304C174.743 167.234 171.691 169.324 169.651 171.925C167.611 174.526 166.357 177.623 164.882 180.572C163.535 183.247 161.987 185.819 160.248 188.265C159.241 189.72 158.063 191.169 156.461 191.988C153.691 193.413 150.322 192.614 147.335 191.69C144.431 190.79 141.554 189.798 138.703 188.712C138.697 189.229 138.654 189.745 138.572 190.256C142.329 191.765 146.142 193.118 150.01 194.316C152.991 195.239 156.36 196.039 159.135 194.614C160.732 193.795 161.89 192.341 162.923 190.886C164.662 188.443 166.209 185.873 167.551 183.197C169.032 180.249 170.281 177.147 172.325 174.546C174.37 171.945 177.417 169.86 180.751 169.93C185.384 170.029 189.912 174.149 194.132 172.267C202.669 168.465 202.019 151.48 202.417 143.885C202.88 135.055 212.63 128.175 204.482 119.816Z" fill="black"/>
</g>
<path opacity="0.1" d="M138.119 189.526C137.691 190.271 137.273 191.015 136.89 191.78C136.744 192.073 136.603 192.375 136.477 192.678C133.838 190.057 127.412 183.828 123.826 181.897C124.698 180.055 125.834 178.347 127.2 176.824C127.2 176.824 135.747 181.277 138.119 189.526Z" fill="black"/>
<path d="M138.356 189.119C136.377 180.289 127.2 175.509 127.2 175.509C125.833 177.031 124.697 178.739 123.826 180.582C127.608 182.622 134.579 189.462 136.89 191.78L138.356 189.119Z" fill="#EB5569"/>
<defs>
<linearGradient id="paint0_linear_4_6" x1="368.094" y1="48.0562" x2="368.094" y2="38.933" gradientUnits="userSpaceOnUse">
<stop stop-color="#808080" stop-opacity="0.25"/>
<stop offset="0.54" stop-color="#808080" stop-opacity="0.12"/>
<stop offset="1" stop-color="#808080" stop-opacity="0.1"/>
</linearGradient>
<linearGradient id="paint1_linear_4_6" x1="231050" y1="326862" x2="231050" y2="22790.1" gradientUnits="userSpaceOnUse">
<stop stop-color="#808080" stop-opacity="0.25"/>
<stop offset="0.54" stop-color="#808080" stop-opacity="0.12"/>
<stop offset="1" stop-color="#808080" stop-opacity="0.1"/>
</linearGradient>
</defs>
</svg>
