<svg width="68" height="72" viewBox="0 0 68 72" fill="none" xmlns="http://www.w3.org/2000/svg">
<path d="M33.7249 0.883789C27.8873 0.883789 24.3931 1.75665 22.172 2.845C21.0601 3.39054 20.2706 3.96335 19.7397 4.54981C19.2059 5.13626 18.8696 5.99821 18.8696 5.99821C18.7824 6.21728 18.7245 6.44649 18.6972 6.68013L17.2184 25.3485C17.1989 25.463 17.2378 25.6485 17.2184 25.774L17.046 27.6506C17.0298 27.8203 17.0298 27.9911 17.046 28.1607C17.046 37.1621 24.5515 44.5269 33.7249 44.5269C42.8983 44.5269 50.4038 37.1621 50.4038 28.1607V27.7352C50.4043 27.707 50.4043 27.6788 50.4038 27.6506L48.7526 6.68013C48.7254 6.44649 48.6674 6.21728 48.5803 5.99821C48.5803 5.99821 48.2439 5.13626 47.7102 4.54981C47.1792 3.96063 46.3898 3.38781 45.2778 2.845C43.0568 1.75392 39.5625 0.883789 33.7249 0.883789ZM33.7249 44.5269C15.3781 44.5269 0.367126 52.9991 0.367126 60.6366V71.8038H67.0827V60.6366C67.0827 53.381 53.5117 45.3888 36.4186 44.6114C35.5219 44.5534 34.6235 44.5252 33.7249 44.5269ZM33.7249 6.33917C39.0066 6.33917 41.6446 7.15748 42.7593 7.70302C43.1318 7.88577 43.1763 7.95669 43.2819 8.04398L44.4105 22.0234C41.8531 22.1762 38.3672 22.7053 33.7249 22.7053C29.0826 22.7053 25.5995 22.1762 23.0393 22.0234L24.1679 8.04398C24.2708 7.95669 24.318 7.88577 24.6905 7.70302C25.8052 7.15748 28.4433 6.33917 33.7249 6.33917ZM31.4649 9.06687V12.3074H28.1653V16.7399H31.4677V19.9776H35.9821V16.7371H39.2846V12.3074H35.9821V9.06687H31.4677H31.4649ZM25.3855 50.6642L32.5101 66.3484H5.92676V60.6366C5.92676 58.6045 13.0153 52.6527 25.3855 50.6642ZM42.0644 50.6642C54.4346 52.6554 61.5231 58.6045 61.5231 60.6366V66.3484H34.9397L42.0644 50.6642Z" fill="#EC5863"/>
</svg>
