<svg width="88" height="72" viewBox="0 0 88 72" fill="none" xmlns="http://www.w3.org/2000/svg">
<path d="M24.5815 0.16333C18.2049 0.16333 12.0895 2.62783 7.58063 7.01466C3.07172 11.4015 0.538635 17.3513 0.538635 23.5552C0.538635 25.6818 0.932064 27.8083 1.50035 29.9348H19.3358L24.8875 15.602C26.1989 12.1995 31.3572 11.8593 33.0184 15.602L42.0672 38.441L44.6463 32.4016C45.2146 30.9981 46.7446 29.9348 48.6243 29.9348H87.0055C87.5738 27.8083 87.9672 25.6818 87.9672 23.5552C87.9672 17.3513 85.4341 11.4015 80.9252 7.01466C76.4163 2.62783 70.3009 0.16333 63.9243 0.16333C55.7935 0.16333 48.6243 4.11869 44.2529 10.1155C39.8815 4.11869 32.7123 0.16333 24.5815 0.16333ZM4.91006 36.3145C3.75069 36.3145 2.6388 36.7625 1.819 37.5602C0.999195 38.3578 0.538635 39.4395 0.538635 40.5675C0.538635 41.6955 0.999195 42.7773 1.819 43.5749C2.6388 44.3725 3.75069 44.8206 4.91006 44.8206H15.5763L39.8815 68.2125C44.2529 72.0403 44.2529 72.0403 48.6243 68.2125L72.9295 44.8206H83.5958C84.7552 44.8206 85.867 44.3725 86.6868 43.5749C87.5066 42.7773 87.9672 41.6955 87.9672 40.5675C87.9672 39.4395 87.5066 38.3578 86.6868 37.5602C85.867 36.7625 84.7552 36.3145 83.5958 36.3145H50.3729L46.3075 46.0965C44.5589 50.3921 39.5318 49.7967 37.9143 46.2241L28.9529 23.5552L24.7563 33.4649C24.1006 35.0811 22.6143 36.3145 20.6472 36.3145H4.91006Z" fill="#EC5863"/>
</svg>
