<svg width="65" height="72" viewBox="0 0 65 72" fill="none" xmlns="http://www.w3.org/2000/svg">
<path d="M64.4813 25.4809H43.0528V71.5789H35.9099V50.3029H28.7671V71.5789H21.6242V25.4809H0.195633V18.3889H64.4813V25.4809ZM32.3385 0.658936C34.2329 0.658936 36.0497 1.40613 37.3893 2.73613C38.7288 4.06614 39.4813 5.87002 39.4813 7.75094C39.4813 9.63185 38.7288 11.4357 37.3893 12.7657C36.0497 14.0957 34.2329 14.8429 32.3385 14.8429C30.4441 14.8429 28.6273 14.0957 27.2877 12.7657C25.9482 11.4357 25.1956 9.63185 25.1956 7.75094C25.1956 3.81488 28.3742 0.658936 32.3385 0.658936Z" fill="#EC5863"/>
</svg>
