<svg width="140" height="41" viewBox="0 0 140 41" fill="none" xmlns="http://www.w3.org/2000/svg">
<path d="M51.462 27.1415C50.322 27.1415 49.338 26.9555 48.51 26.5835C47.694 26.1995 47.058 25.6475 46.602 24.9275C46.158 24.1955 45.912 23.3075 45.864 22.2635C45.852 21.7475 45.846 21.2015 45.846 20.6255C45.846 20.0375 45.852 19.4795 45.864 18.9515C45.912 17.9315 46.164 17.0675 46.62 16.3595C47.076 15.6515 47.718 15.1115 48.546 14.7395C49.374 14.3675 50.346 14.1815 51.462 14.1815C52.362 14.1815 53.16 14.2955 53.856 14.5235C54.552 14.7395 55.134 15.0335 55.602 15.4055C56.082 15.7775 56.442 16.1855 56.682 16.6295C56.934 17.0735 57.066 17.5115 57.078 17.9435C57.09 18.0515 57.054 18.1415 56.97 18.2135C56.898 18.2855 56.808 18.3215 56.7 18.3215H54.072C53.94 18.3215 53.838 18.3035 53.766 18.2675C53.706 18.2195 53.652 18.1535 53.604 18.0695C53.52 17.8895 53.394 17.7035 53.226 17.5115C53.07 17.3075 52.848 17.1335 52.56 16.9895C52.284 16.8455 51.918 16.7735 51.462 16.7735C50.778 16.7735 50.238 16.9535 49.842 17.3135C49.458 17.6735 49.248 18.2495 49.212 19.0415C49.176 20.0735 49.176 21.1175 49.212 22.1735C49.248 23.0135 49.47 23.6195 49.878 23.9915C50.286 24.3635 50.826 24.5495 51.498 24.5495C51.954 24.5495 52.356 24.4715 52.704 24.3155C53.064 24.1595 53.346 23.9195 53.55 23.5955C53.754 23.2595 53.856 22.8335 53.856 22.3175V21.9755H52.164C52.032 21.9755 51.918 21.9335 51.822 21.8495C51.738 21.7535 51.696 21.6395 51.696 21.5075V20.1755C51.696 20.0435 51.738 19.9355 51.822 19.8515C51.918 19.7555 52.032 19.7075 52.164 19.7075H56.7C56.832 19.7075 56.94 19.7555 57.024 19.8515C57.108 19.9355 57.15 20.0435 57.15 20.1755V22.2275C57.15 23.2595 56.916 24.1415 56.448 24.8735C55.98 25.6055 55.314 26.1695 54.45 26.5655C53.598 26.9495 52.602 27.1415 51.462 27.1415ZM63.4451 27.1415C62.4371 27.1415 61.5851 26.9795 60.8891 26.6555C60.2051 26.3315 59.6771 25.8695 59.3051 25.2695C58.9451 24.6575 58.7411 23.9315 58.6931 23.0915C58.6811 22.8515 58.6751 22.5815 58.6751 22.2815C58.6751 21.9695 58.6811 21.6995 58.6931 21.4715C58.7411 20.6195 58.9571 19.8935 59.3411 19.2935C59.7251 18.6935 60.2591 18.2315 60.9431 17.9075C61.6391 17.5835 62.4731 17.4215 63.4451 17.4215C64.4291 17.4215 65.2631 17.5835 65.9471 17.9075C66.6431 18.2315 67.1831 18.6935 67.5671 19.2935C67.9511 19.8935 68.1671 20.6195 68.2151 21.4715C68.2271 21.6995 68.2331 21.9695 68.2331 22.2815C68.2331 22.5815 68.2271 22.8515 68.2151 23.0915C68.1671 23.9315 67.9571 24.6575 67.5851 25.2695C67.2251 25.8695 66.6971 26.3315 66.0011 26.6555C65.3171 26.9795 64.4651 27.1415 63.4451 27.1415ZM63.4451 24.9455C63.9851 24.9455 64.3751 24.7835 64.6151 24.4595C64.8671 24.1355 65.0111 23.6495 65.0471 23.0015C65.0591 22.8215 65.0651 22.5815 65.0651 22.2815C65.0651 21.9815 65.0591 21.7415 65.0471 21.5615C65.0111 20.9255 64.8671 20.4455 64.6151 20.1215C64.3751 19.7855 63.9851 19.6175 63.4451 19.6175C62.9171 19.6175 62.5271 19.7855 62.2751 20.1215C62.0231 20.4455 61.8851 20.9255 61.8611 21.5615C61.8491 21.7415 61.8431 21.9815 61.8431 22.2815C61.8431 22.5815 61.8491 22.8215 61.8611 23.0015C61.8851 23.6495 62.0231 24.1355 62.2751 24.4595C62.5271 24.7835 62.9171 24.9455 63.4451 24.9455Z" fill="black"/>
<path d="M75.3674 27.1415C74.2274 27.1415 73.2494 26.9555 72.4334 26.5835C71.6294 26.2115 70.9994 25.6655 70.5434 24.9455C70.0994 24.2255 69.8534 23.3315 69.8054 22.2635C69.7934 21.7715 69.7874 21.2435 69.7874 20.6795C69.7874 20.1155 69.7934 19.5755 69.8054 19.0595C69.8534 18.0155 70.1054 17.1335 70.5614 16.4135C71.0174 15.6815 71.6534 15.1295 72.4694 14.7575C73.2854 14.3735 74.2514 14.1815 75.3674 14.1815C76.1594 14.1815 76.8914 14.2835 77.5634 14.4875C78.2354 14.6795 78.8234 14.9675 79.3274 15.3515C79.8314 15.7235 80.2214 16.1795 80.4974 16.7195C80.7854 17.2475 80.9354 17.8475 80.9474 18.5195C80.9594 18.6275 80.9234 18.7175 80.8394 18.7895C80.7674 18.8615 80.6774 18.8975 80.5694 18.8975H78.1394C77.9834 18.8975 77.8634 18.8675 77.7794 18.8075C77.6954 18.7355 77.6234 18.6095 77.5634 18.4295C77.3954 17.7935 77.1194 17.3615 76.7354 17.1335C76.3634 16.8935 75.9014 16.7735 75.3494 16.7735C74.6894 16.7735 74.1674 16.9595 73.7834 17.3315C73.3994 17.6915 73.1894 18.2975 73.1534 19.1495C73.1174 20.1335 73.1174 21.1415 73.1534 22.1735C73.1894 23.0255 73.3994 23.6375 73.7834 24.0095C74.1674 24.3695 74.6894 24.5495 75.3494 24.5495C75.9014 24.5495 76.3694 24.4295 76.7534 24.1895C77.1374 23.9495 77.4074 23.5175 77.5634 22.8935C77.6114 22.7135 77.6774 22.5935 77.7614 22.5335C77.8574 22.4615 77.9834 22.4255 78.1394 22.4255H80.5694C80.6774 22.4255 80.7674 22.4615 80.8394 22.5335C80.9234 22.6055 80.9594 22.6955 80.9474 22.8035C80.9354 23.4755 80.7854 24.0815 80.4974 24.6215C80.2214 25.1495 79.8314 25.6055 79.3274 25.9895C78.8234 26.3615 78.2354 26.6495 77.5634 26.8535C76.8914 27.0455 76.1594 27.1415 75.3674 27.1415ZM87.0701 27.1415C86.0621 27.1415 85.2101 26.9795 84.5141 26.6555C83.8301 26.3315 83.3021 25.8695 82.9301 25.2695C82.5701 24.6575 82.3661 23.9315 82.3181 23.0915C82.3061 22.8515 82.3001 22.5815 82.3001 22.2815C82.3001 21.9695 82.3061 21.6995 82.3181 21.4715C82.3661 20.6195 82.5821 19.8935 82.9661 19.2935C83.3501 18.6935 83.8841 18.2315 84.5681 17.9075C85.2641 17.5835 86.0981 17.4215 87.0701 17.4215C88.0541 17.4215 88.8881 17.5835 89.5721 17.9075C90.2681 18.2315 90.8081 18.6935 91.1921 19.2935C91.5761 19.8935 91.7921 20.6195 91.8401 21.4715C91.8521 21.6995 91.8581 21.9695 91.8581 22.2815C91.8581 22.5815 91.8521 22.8515 91.8401 23.0915C91.7921 23.9315 91.5821 24.6575 91.2101 25.2695C90.8501 25.8695 90.3221 26.3315 89.6261 26.6555C88.9421 26.9795 88.0901 27.1415 87.0701 27.1415ZM87.0701 24.9455C87.6101 24.9455 88.0001 24.7835 88.2401 24.4595C88.4921 24.1355 88.6361 23.6495 88.6721 23.0015C88.6841 22.8215 88.6901 22.5815 88.6901 22.2815C88.6901 21.9815 88.6841 21.7415 88.6721 21.5615C88.6361 20.9255 88.4921 20.4455 88.2401 20.1215C88.0001 19.7855 87.6101 19.6175 87.0701 19.6175C86.5421 19.6175 86.1521 19.7855 85.9001 20.1215C85.6481 20.4455 85.5101 20.9255 85.4861 21.5615C85.4741 21.7415 85.4681 21.9815 85.4681 22.2815C85.4681 22.5815 85.4741 22.8215 85.4861 23.0015C85.5101 23.6495 85.6481 24.1355 85.9001 24.4595C86.1521 24.7835 86.5421 24.9455 87.0701 24.9455ZM94.0784 26.9615C93.9464 26.9615 93.8384 26.9195 93.7544 26.8355C93.6704 26.7515 93.6284 26.6435 93.6284 26.5115V18.0515C93.6284 17.9315 93.6704 17.8295 93.7544 17.7455C93.8384 17.6495 93.9464 17.6015 94.0784 17.6015H96.1484C96.2804 17.6015 96.3884 17.6495 96.4724 17.7455C96.5564 17.8295 96.5984 17.9315 96.5984 18.0515V18.7715C96.9224 18.3995 97.3064 18.1115 97.7504 17.9075C98.2064 17.7035 98.7164 17.6015 99.2804 17.6015H100.072C100.192 17.6015 100.294 17.6435 100.378 17.7275C100.474 17.8115 100.522 17.9195 100.522 18.0515V19.9055C100.522 20.0255 100.474 20.1335 100.378 20.2295C100.294 20.3135 100.192 20.3555 100.072 20.3555H98.3264C97.8344 20.3555 97.4504 20.4935 97.1744 20.7695C96.9104 21.0335 96.7784 21.4115 96.7784 21.9035V26.5115C96.7784 26.6435 96.7304 26.7515 96.6344 26.8355C96.5504 26.9195 96.4424 26.9615 96.3104 26.9615H94.0784ZM106.16 27.1415C105.152 27.1415 104.3 26.9795 103.604 26.6555C102.92 26.3315 102.392 25.8695 102.02 25.2695C101.66 24.6575 101.456 23.9315 101.408 23.0915C101.396 22.8515 101.39 22.5815 101.39 22.2815C101.39 21.9695 101.396 21.6995 101.408 21.4715C101.456 20.6195 101.672 19.8935 102.056 19.2935C102.44 18.6935 102.974 18.2315 103.658 17.9075C104.354 17.5835 105.188 17.4215 106.16 17.4215C107.144 17.4215 107.978 17.5835 108.662 17.9075C109.358 18.2315 109.898 18.6935 110.282 19.2935C110.666 19.8935 110.882 20.6195 110.93 21.4715C110.942 21.6995 110.948 21.9695 110.948 22.2815C110.948 22.5815 110.942 22.8515 110.93 23.0915C110.882 23.9315 110.672 24.6575 110.3 25.2695C109.94 25.8695 109.412 26.3315 108.716 26.6555C108.032 26.9795 107.18 27.1415 106.16 27.1415ZM106.16 24.9455C106.7 24.9455 107.09 24.7835 107.33 24.4595C107.582 24.1355 107.726 23.6495 107.762 23.0015C107.774 22.8215 107.78 22.5815 107.78 22.2815C107.78 21.9815 107.774 21.7415 107.762 21.5615C107.726 20.9255 107.582 20.4455 107.33 20.1215C107.09 19.7855 106.7 19.6175 106.16 19.6175C105.632 19.6175 105.242 19.7855 104.99 20.1215C104.738 20.4455 104.6 20.9255 104.576 21.5615C104.564 21.7415 104.558 21.9815 104.558 22.2815C104.558 22.5815 104.564 22.8215 104.576 23.0015C104.6 23.6495 104.738 24.1355 104.99 24.4595C105.242 24.7835 105.632 24.9455 106.16 24.9455ZM113.168 26.9615C113.036 26.9615 112.928 26.9195 112.844 26.8355C112.76 26.7515 112.718 26.6435 112.718 26.5115V18.0515C112.718 17.9195 112.76 17.8115 112.844 17.7275C112.928 17.6435 113.036 17.6015 113.168 17.6015H115.238C115.37 17.6015 115.478 17.6435 115.562 17.7275C115.646 17.8115 115.688 17.9195 115.688 18.0515V18.7355C116 18.3635 116.408 18.0515 116.912 17.7995C117.416 17.5475 118.01 17.4215 118.694 17.4215C119.39 17.4215 120.002 17.5775 120.53 17.8895C121.07 18.2015 121.49 18.6635 121.79 19.2755C122.102 19.8755 122.258 20.6135 122.258 21.4895V26.5115C122.258 26.6435 122.21 26.7515 122.114 26.8355C122.03 26.9195 121.928 26.9615 121.808 26.9615H119.54C119.42 26.9615 119.312 26.9195 119.216 26.8355C119.132 26.7515 119.09 26.6435 119.09 26.5115V21.5975C119.09 21.0335 118.952 20.6015 118.676 20.3015C118.412 19.9895 118.016 19.8335 117.488 19.8335C116.996 19.8335 116.6 19.9895 116.3 20.3015C116.012 20.6015 115.868 21.0335 115.868 21.5975V26.5115C115.868 26.6435 115.82 26.7515 115.724 26.8355C115.64 26.9195 115.538 26.9615 115.418 26.9615H113.168ZM127.075 27.1415C126.427 27.1415 125.845 27.0215 125.329 26.7815C124.825 26.5295 124.423 26.1935 124.123 25.7735C123.823 25.3535 123.673 24.8795 123.673 24.3515C123.673 23.4995 124.021 22.8275 124.717 22.3355C125.413 21.8315 126.337 21.4895 127.489 21.3095L129.739 20.9675V20.7155C129.739 20.2835 129.649 19.9535 129.469 19.7255C129.289 19.4975 128.959 19.3835 128.479 19.3835C128.143 19.3835 127.867 19.4495 127.651 19.5815C127.447 19.7135 127.285 19.8935 127.165 20.1215C127.057 20.2775 126.907 20.3555 126.715 20.3555H124.699C124.567 20.3555 124.465 20.3195 124.393 20.2475C124.321 20.1635 124.291 20.0675 124.303 19.9595C124.303 19.7435 124.381 19.4975 124.537 19.2215C124.705 18.9335 124.957 18.6515 125.293 18.3755C125.629 18.0995 126.061 17.8715 126.589 17.6915C127.117 17.5115 127.753 17.4215 128.497 17.4215C129.277 17.4215 129.943 17.5115 130.495 17.6915C131.047 17.8715 131.491 18.1235 131.827 18.4475C132.175 18.7715 132.433 19.1555 132.601 19.5995C132.769 20.0315 132.853 20.5115 132.853 21.0395V26.5115C132.853 26.6435 132.805 26.7515 132.709 26.8355C132.625 26.9195 132.523 26.9615 132.403 26.9615H130.315C130.183 26.9615 130.075 26.9195 129.991 26.8355C129.907 26.7515 129.865 26.6435 129.865 26.5115V25.8815C129.709 26.1095 129.499 26.3195 129.235 26.5115C128.971 26.7035 128.659 26.8535 128.299 26.9615C127.951 27.0815 127.543 27.1415 127.075 27.1415ZM127.921 25.0895C128.269 25.0895 128.581 25.0175 128.857 24.8735C129.145 24.7175 129.367 24.4835 129.523 24.1715C129.691 23.8475 129.775 23.4455 129.775 22.9655V22.7135L128.245 22.9835C127.681 23.0795 127.267 23.2295 127.003 23.4335C126.751 23.6255 126.625 23.8535 126.625 24.1175C126.625 24.3215 126.685 24.4955 126.805 24.6395C126.925 24.7835 127.081 24.8975 127.273 24.9815C127.465 25.0535 127.681 25.0895 127.921 25.0895Z" fill="#EC5863"/>
<path d="M14.1525 5.28126C15.5695 4.79559 17.1339 5.47002 17.6459 6.78699C18.0379 7.79529 17.6988 8.88704 16.8838 9.56193L17.3334 10.761L18.0422 11.5706C18.204 11.7559 18.4484 11.8454 18.6925 11.817C19.3509 11.7403 20.0056 11.741 20.6471 11.8114C20.8645 11.8355 21.0802 11.7655 21.2353 11.6161L21.7405 11.1314L22.1088 10.0522C21.7875 9.61666 21.6763 9.04165 21.862 8.49692C22.1773 7.57351 23.2219 7.10119 24.1557 7.48527C24.9601 7.81574 25.4019 8.70322 25.1717 9.5255C25.0256 10.0492 24.6501 10.44 24.1863 10.6319L23.7786 11.8279L23.877 12.4887C23.9109 12.7158 24.048 12.9148 24.2473 13.0348C24.9173 13.4403 25.5334 13.9348 26.0751 14.5055C26.2571 14.6976 26.5275 14.7811 26.7866 14.7307L28.1202 14.4724L29.6238 13.6513C29.6273 12.9159 30.0196 12.2071 30.7152 11.8272C31.7669 11.2532 33.1054 11.6504 33.6739 12.7161C34.187 13.6776 33.8755 14.8809 32.9596 15.4659C32.2445 15.9219 31.3685 15.9002 30.6901 15.5036L29.1776 16.329L28.3354 17.2167C28.1094 17.4548 28.0304 17.793 28.119 18.1104C28.1196 18.1123 28.1199 18.1136 28.1204 18.1154C28.2721 18.6626 28.3654 19.2121 28.4059 19.7565C28.4294 20.0808 28.6162 20.3735 28.9069 20.5301L30.0163 21.1274L32.2107 21.5495C32.5952 21.218 33.1265 21.0596 33.671 21.1639C34.6473 21.352 35.2808 22.3124 35.0365 23.2744C34.8265 24.0982 34.0099 24.6428 33.152 24.5299C32.5669 24.453 32.0929 24.1019 31.8367 23.6321L29.6281 23.2077L28.2682 23.3642C28.0176 23.3936 27.7995 23.548 27.6985 23.7752C27.2966 24.6721 26.7397 25.4959 26.0503 26.206C25.879 26.3824 25.8158 26.636 25.8797 26.8741L26.2255 28.1705L27.068 29.4695C27.9856 29.3384 28.9436 29.7363 29.4785 30.5615C30.1977 31.67 29.883 33.1307 28.7779 33.8372C27.6735 34.5435 26.163 34.225 25.43 33.1302C24.9167 32.3637 24.9056 31.4216 25.3136 30.6766L24.4192 29.2978L23.3242 28.4053C23.1621 28.2724 22.942 28.2362 22.7455 28.3046C22.5273 28.3805 22.3049 28.4482 22.0773 28.5071C20.8408 28.8274 19.5923 28.8626 18.4035 28.6559C18.2292 28.626 18.0515 28.674 17.9189 28.7874L17.337 29.2866L16.9083 30.3433C17.2052 30.7959 17.2838 31.3753 17.0677 31.9085C16.7006 32.8132 15.6303 33.2271 14.7192 32.7929C13.9346 32.4191 13.5429 31.5093 13.819 30.7013C13.9948 30.1866 14.3911 29.8172 14.8655 29.6514L15.3404 28.4802L15.2449 27.4488C14.3728 26.906 13.5955 26.2113 12.9585 25.3918L11.4732 25.5285L10.0863 26.2008C10.1007 27.1232 9.62573 27.9982 8.78545 28.4183C7.5981 29.0113 6.13219 28.4722 5.51161 27.2135C4.8912 25.9555 5.34996 24.4547 6.53731 23.8617C7.42585 23.4177 8.46978 23.6077 9.19917 24.2592L10.5072 23.6248L11.4119 22.6647C11.471 22.6018 11.4925 22.5131 11.4695 22.4299L11.4691 22.4287C11.0393 20.878 11.0731 19.313 11.4867 17.8769C11.5089 17.7981 11.4914 17.7129 11.4373 17.6498L10.6465 16.718L8.94922 15.8307C8.48434 16.0309 7.93179 16.0272 7.44439 15.7721C6.56389 15.3113 6.24116 14.2153 6.75944 13.3694C7.21445 12.6276 8.19123 12.3504 8.98799 12.7365C9.50372 12.9862 9.83819 13.4498 9.93926 13.9611L11.6365 14.8484L12.8416 14.9672C12.9253 14.9757 13.0065 14.9412 13.0593 14.8773C13.6016 14.2134 14.2484 13.6283 14.9843 13.1495C15.1862 13.0175 15.3109 12.7975 15.3127 12.5571L15.3188 11.4766L14.8393 10.1988C13.8154 10.1202 12.886 9.50242 12.5135 8.54471C12.0014 7.22774 12.7353 5.7663 14.1525 5.28126Z" fill="#EC5863"/>
<path d="M25.9596 18.6736C25.0261 15.3056 21.509 13.2903 18.104 14.1724C14.699 15.0544 12.6955 18.4996 13.629 21.8676C14.5625 25.2355 18.0795 27.2508 21.4845 26.3688C24.8895 25.4868 26.8931 22.0415 25.9596 18.6736Z" fill="#F58A97"/>
<path d="M20.9535 24.4966C17.8582 25.3032 14.6769 23.731 13.4171 20.9243C13.4536 21.2393 13.5147 21.5558 13.6017 21.8716C14.529 25.2374 18.0495 27.2442 21.4652 26.3541C24.881 25.464 26.8982 22.014 25.9709 18.6482C25.8839 18.3324 25.7741 18.0286 25.6436 17.738C25.9955 20.7813 24.0487 23.69 20.9535 24.4966Z" fill="#F07281"/>
<path d="M11.3167 33.4456C11.0515 32.4872 10.05 31.9144 9.07962 32.1662C8.10928 32.418 7.53761 33.3991 7.80276 34.3576C8.06791 35.316 9.06948 35.8888 10.0398 35.637C11.0102 35.3852 11.5818 34.4041 11.3167 33.4456Z" fill="#EB5569"/>
<path d="M34.1057 27.9686C33.9306 27.3355 33.269 26.9571 32.6281 27.1235C31.9872 27.2898 31.6096 27.9378 31.7847 28.5709C31.9599 29.204 32.6214 29.5823 33.2623 29.416C33.9032 29.2497 34.2808 28.6016 34.1057 27.9686Z" fill="#EB5569"/>
<path d="M30.8357 6.36403C30.5777 5.43157 29.6033 4.87428 28.6593 5.11928C27.7153 5.36428 27.1591 6.31879 27.4171 7.25125C27.675 8.1837 28.6494 8.74099 29.5935 8.49599C30.5375 8.251 31.0937 7.29648 30.8357 6.36403Z" fill="#EB5569"/>
<path d="M20.1888 22.1684C19.9483 21.2991 19.0399 20.7795 18.1597 21.0079C17.2796 21.2363 16.7611 22.1262 17.0016 22.9955C17.2421 23.8649 18.1505 24.3844 19.0307 24.156C19.9108 23.9276 20.4293 23.0377 20.1888 22.1684Z" fill="#EB5569"/>
<path d="M24.3062 19.7375C24.1425 19.1457 23.5242 18.7921 22.9252 18.9476C22.3261 19.103 21.9732 19.7087 22.1369 20.3005C22.3006 20.8922 22.9189 21.2458 23.518 21.0904C24.117 20.9349 24.4699 20.3292 24.3062 19.7375Z" fill="#EB5569"/>
<path d="M19.954 17.2883C19.8165 16.7914 19.2973 16.4945 18.7943 16.625C18.2912 16.7556 17.9948 17.2642 18.1323 17.7611C18.2698 18.258 18.789 18.5549 19.292 18.4244C19.7951 18.2938 20.0914 17.7852 19.954 17.2883Z" fill="#EB5569"/>
</svg>
